<svg width="189" height="122" viewBox="0 0 189 122" fill="none" xmlns="http://www.w3.org/2000/svg">
<path d="M6 17C6 13.6863 8.68629 11 12 11H174C177.314 11 180 13.6863 180 17V17C180 20.3137 177.314 23 174 23H12C8.68629 23 6 20.3137 6 17V17Z" fill="black"/>
<rect x="6.5" y="11.5" width="182" height="11" rx="5.5" stroke="black"/>
<rect x="6" y="27" width="183" height="88" rx="3" fill="black"/>
<path d="M19.048 36.925L19.328 34.95L19.443 34.35H19.973L19.858 34.95L19.368 36.925H19.048ZM18.918 38.025C18.8314 38.025 18.7647 37.9967 18.718 37.94C18.6747 37.8833 18.6614 37.8117 18.678 37.725C18.6947 37.6383 18.7364 37.5667 18.803 37.51C18.873 37.4533 18.9497 37.425 19.033 37.425H19.183C19.2797 37.425 19.348 37.4533 19.388 37.51C19.4314 37.5633 19.4447 37.6333 19.428 37.72C19.4114 37.8067 19.368 37.88 19.298 37.94C19.2314 37.9967 19.1547 38.025 19.068 38.025H18.918ZM15.413 38L15.598 37H15.173V36.675H15.658L15.838 35.675H15.348V35.35H15.898L16.083 34.35H16.433L16.248 35.35H17.048L17.233 34.35H17.583L17.398 35.35H17.823V35.675H17.338L17.158 36.675H17.648V37H17.098L16.913 38H16.563L16.748 37H15.948L15.763 38H15.413ZM16.008 36.675H16.808L16.988 35.675H16.188L16.008 36.675ZM21.3711 38.55L23.1461 33.85H23.6211L21.8461 38.55H21.3711ZM25.6541 38.05C25.4275 38.05 25.2458 37.99 25.1091 37.87C24.9725 37.7467 24.9041 37.58 24.9041 37.37L24.9941 37.475H24.9041V38H24.4541V34.35H24.9041V35.15L24.8941 35.775H24.9941L24.9041 35.88C24.9041 35.6733 24.9725 35.5083 25.1091 35.385C25.2491 35.2617 25.4308 35.2 25.6541 35.2C25.9308 35.2 26.1525 35.2917 26.3191 35.475C26.4858 35.6583 26.5691 35.9083 26.5691 36.225V37.03C26.5691 37.3433 26.4858 37.5917 26.3191 37.775C26.1525 37.9583 25.9308 38.05 25.6541 38.05ZM25.5041 37.66C25.6941 37.66 25.8441 37.6033 25.9541 37.49C26.0641 37.3767 26.1191 37.2133 26.1191 37V36.25C26.1191 36.0367 26.0641 35.8733 25.9541 35.76C25.8441 35.6467 25.6941 35.59 25.5041 35.59C25.3208 35.59 25.1741 35.6483 25.0641 35.765C24.9575 35.8817 24.9041 36.0433 24.9041 36.25V37C24.9041 37.2067 24.9575 37.3683 25.0641 37.485C25.1741 37.6017 25.3208 37.66 25.5041 37.66ZM27.4172 38V37.59H28.3922V35.66H27.5422V35.25H28.8422V37.59H29.7672V38H27.4172ZM28.5672 34.755C28.4572 34.755 28.3705 34.7267 28.3072 34.67C28.2439 34.6133 28.2122 34.5367 28.2122 34.44C28.2122 34.34 28.2439 34.2617 28.3072 34.205C28.3705 34.145 28.4572 34.115 28.5672 34.115C28.6772 34.115 28.7639 34.145 28.8272 34.205C28.8905 34.2617 28.9222 34.34 28.9222 34.44C28.9222 34.5367 28.8905 34.6133 28.8272 34.67C28.7639 34.7267 28.6772 34.755 28.5672 34.755ZM30.4502 38V35.25H30.9002V35.775H30.9952L30.9002 35.88C30.9002 35.6633 30.9652 35.4967 31.0952 35.38C31.2252 35.26 31.4052 35.2 31.6352 35.2C31.9119 35.2 32.1319 35.285 32.2952 35.455C32.4586 35.625 32.5402 35.8567 32.5402 36.15V38H32.0902V36.2C32.0902 36.0033 32.0369 35.8533 31.9302 35.75C31.8269 35.6433 31.6852 35.59 31.5052 35.59C31.3186 35.59 31.1702 35.6467 31.0602 35.76C30.9536 35.8733 30.9002 36.0367 30.9002 36.25V38H30.4502ZM33.3633 38.55L35.1383 33.85H35.6133L33.8383 38.55H33.3633ZM37.6463 38.05C37.4197 38.05 37.238 37.99 37.1013 37.87C36.9647 37.7467 36.8963 37.58 36.8963 37.37L36.9863 37.475H36.8963V38H36.4463V34.35H36.8963V35.15L36.8863 35.775H36.9863L36.8963 35.88C36.8963 35.6733 36.9647 35.5083 37.1013 35.385C37.2413 35.2617 37.423 35.2 37.6463 35.2C37.923 35.2 38.1447 35.2917 38.3113 35.475C38.478 35.6583 38.5613 35.9083 38.5613 36.225V37.03C38.5613 37.3433 38.478 37.5917 38.3113 37.775C38.1447 37.9583 37.923 38.05 37.6463 38.05ZM37.4963 37.66C37.6863 37.66 37.8363 37.6033 37.9463 37.49C38.0563 37.3767 38.1113 37.2133 38.1113 37V36.25C38.1113 36.0367 38.0563 35.8733 37.9463 35.76C37.8363 35.6467 37.6863 35.59 37.4963 35.59C37.313 35.59 37.1663 35.6483 37.0563 35.765C36.9497 35.8817 36.8963 36.0433 36.8963 36.25V37C36.8963 37.2067 36.9497 37.3683 37.0563 37.485C37.1663 37.6017 37.313 37.66 37.4963 37.66ZM40.2444 38.05C39.9544 38.05 39.726 37.9767 39.5594 37.83C39.3927 37.68 39.3094 37.4783 39.3094 37.225C39.3094 36.9683 39.3927 36.7667 39.5594 36.62C39.726 36.4733 39.951 36.4 40.2344 36.4H41.0844V36.125C41.0844 35.955 41.0327 35.825 40.9294 35.735C40.8294 35.6417 40.686 35.595 40.4994 35.595C40.336 35.595 40.1994 35.63 40.0894 35.7C39.9794 35.7667 39.916 35.8583 39.8994 35.975H39.4494C39.4794 35.7383 39.591 35.55 39.7844 35.41C39.9777 35.27 40.2194 35.2 40.5094 35.2C40.826 35.2 41.076 35.2817 41.2594 35.445C41.4427 35.6083 41.5344 35.83 41.5344 36.11V38H41.0944V37.475H41.0194L41.0944 37.4C41.0944 37.6 41.016 37.7583 40.8594 37.875C40.706 37.9917 40.501 38.05 40.2444 38.05ZM40.3544 37.695C40.5677 37.695 40.7427 37.6417 40.8794 37.535C41.016 37.4283 41.0844 37.2917 41.0844 37.125V36.735H40.2444C40.0944 36.735 39.976 36.7767 39.8894 36.86C39.8027 36.9433 39.7594 37.0567 39.7594 37.2C39.7594 37.3533 39.811 37.475 39.9144 37.565C40.021 37.6517 40.1677 37.695 40.3544 37.695ZM43.3974 38.04C43.2108 38.04 43.0474 38.0117 42.9074 37.955C42.7708 37.895 42.6608 37.8117 42.5774 37.705C42.4974 37.5983 42.4491 37.4717 42.4324 37.325H42.8824C42.9024 37.4217 42.9558 37.4983 43.0424 37.555C43.1324 37.6117 43.2508 37.64 43.3974 37.64H43.6074C43.7841 37.64 43.9158 37.605 44.0024 37.535C44.0891 37.4617 44.1324 37.365 44.1324 37.245C44.1324 37.1283 44.0924 37.0367 44.0124 36.97C43.9358 36.9 43.8208 36.8533 43.6674 36.83L43.2974 36.77C43.0274 36.7233 42.8258 36.64 42.6924 36.52C42.5624 36.3967 42.4974 36.2183 42.4974 35.985C42.4974 35.7383 42.5758 35.5483 42.7324 35.415C42.8891 35.2783 43.1241 35.21 43.4374 35.21H43.6274C43.8908 35.21 44.1024 35.2717 44.2624 35.395C44.4224 35.5183 44.5191 35.685 44.5524 35.895H44.1024C44.0824 35.8083 44.0324 35.74 43.9524 35.69C43.8724 35.6367 43.7641 35.61 43.6274 35.61H43.4374C43.2674 35.61 43.1424 35.6417 43.0624 35.705C42.9858 35.7683 42.9474 35.8633 42.9474 35.99C42.9474 36.1033 42.9808 36.1867 43.0474 36.24C43.1141 36.2933 43.2191 36.3317 43.3624 36.355L43.7324 36.415C44.0291 36.4617 44.2441 36.5483 44.3774 36.675C44.5141 36.8017 44.5824 36.985 44.5824 37.225C44.5824 37.4783 44.5008 37.6783 44.3374 37.825C44.1774 37.9683 43.9341 38.04 43.6074 38.04H43.3974ZM45.4405 38V34.35H45.8905V35.25V35.775H45.9855L45.8905 35.88C45.8905 35.6633 45.9555 35.4967 46.0855 35.38C46.2155 35.26 46.3955 35.2 46.6255 35.2C46.9021 35.2 47.1221 35.285 47.2855 35.455C47.4488 35.625 47.5305 35.8567 47.5305 36.15V38H47.0805V36.2C47.0805 36.0033 47.0271 35.8517 46.9205 35.745C46.8171 35.635 46.6755 35.58 46.4955 35.58C46.3088 35.58 46.1605 35.6383 46.0505 35.755C45.9438 35.8717 45.8905 36.0367 45.8905 36.25V38H45.4405Z" fill="white"/>
<path d="M16.8 50C16.5633 50 16.3783 49.9367 16.245 49.81C16.115 49.6833 16.05 49.505 16.05 49.275V47.66H15.275V47.25H16.05V46.475H16.5V47.25H17.6V47.66H16.5V49.275C16.5 49.485 16.6 49.59 16.8 49.59H17.55V50H16.8ZM19.498 50.04C19.278 50.04 19.088 49.9983 18.928 49.915C18.768 49.8317 18.643 49.7117 18.553 49.555C18.4664 49.395 18.423 49.2067 18.423 48.99V48.26C18.423 48.04 18.4664 47.8517 18.553 47.695C18.643 47.5383 18.768 47.4183 18.928 47.335C19.088 47.2517 19.278 47.21 19.498 47.21C19.718 47.21 19.908 47.2517 20.068 47.335C20.228 47.4183 20.3514 47.5383 20.438 47.695C20.528 47.8517 20.573 48.0383 20.573 48.255V48.99C20.573 49.2067 20.528 49.395 20.438 49.555C20.3514 49.7117 20.228 49.8317 20.068 49.915C19.908 49.9983 19.718 50.04 19.498 50.04ZM19.498 49.64C19.6947 49.64 19.848 49.585 19.958 49.475C20.068 49.365 20.123 49.2033 20.123 48.99V48.26C20.123 48.0467 20.068 47.885 19.958 47.775C19.848 47.665 19.6947 47.61 19.498 47.61C19.3047 47.61 19.1514 47.665 19.038 47.775C18.928 47.885 18.873 48.0467 18.873 48.26V48.99C18.873 49.2033 18.928 49.365 19.038 49.475C19.1514 49.585 19.3047 49.64 19.498 49.64ZM22.4911 50.05C22.1744 50.05 21.9211 49.9567 21.7311 49.77C21.5411 49.58 21.4461 49.3233 21.4461 49V47.25H21.8961V49C21.8961 49.2067 21.9494 49.3683 22.0561 49.485C22.1628 49.5983 22.3078 49.655 22.4911 49.655C22.6778 49.655 22.8244 49.5983 22.9311 49.485C23.0411 49.3683 23.0961 49.2067 23.0961 49V47.25H23.5461V49C23.5461 49.3233 23.4494 49.58 23.2561 49.77C23.0628 49.9567 22.8078 50.05 22.4911 50.05ZM25.5141 50.05C25.2941 50.05 25.1008 50.0083 24.9341 49.925C24.7708 49.8417 24.6441 49.7217 24.5541 49.565C24.4641 49.405 24.4191 49.2167 24.4191 49V48.25C24.4191 48.03 24.4641 47.8417 24.5541 47.685C24.6441 47.5283 24.7708 47.4083 24.9341 47.325C25.1008 47.2417 25.2941 47.2 25.5141 47.2C25.8308 47.2 26.0858 47.285 26.2791 47.455C26.4725 47.625 26.5741 47.8567 26.5841 48.15H26.1341C26.1241 47.9733 26.0641 47.8383 25.9541 47.745C25.8475 47.6483 25.7008 47.6 25.5141 47.6C25.3175 47.6 25.1608 47.6567 25.0441 47.77C24.9275 47.88 24.8691 48.0383 24.8691 48.245V49C24.8691 49.2067 24.9275 49.3667 25.0441 49.48C25.1608 49.5933 25.3175 49.65 25.5141 49.65C25.7008 49.65 25.8475 49.6017 25.9541 49.505C26.0641 49.4083 26.1241 49.2733 26.1341 49.1H26.5841C26.5741 49.3933 26.4725 49.625 26.2791 49.795C26.0858 49.965 25.8308 50.05 25.5141 50.05ZM27.4522 50V46.35H27.9022V47.25V47.775H27.9972L27.9022 47.88C27.9022 47.6633 27.9672 47.4967 28.0972 47.38C28.2272 47.26 28.4072 47.2 28.6372 47.2C28.9139 47.2 29.1339 47.285 29.2972 47.455C29.4605 47.625 29.5422 47.8567 29.5422 48.15V50H29.0922V48.2C29.0922 48.0033 29.0389 47.8517 28.9322 47.745C28.8289 47.635 28.6872 47.58 28.5072 47.58C28.3205 47.58 28.1722 47.6383 28.0622 47.755C27.9555 47.8717 27.9022 48.0367 27.9022 48.25V50H27.4522ZM33.3633 50.55L35.1383 45.85H35.6133L33.8383 50.55H33.3633ZM36.4463 50V46.35H36.8963V47.25V47.775H36.9913L36.8963 47.88C36.8963 47.6633 36.9613 47.4967 37.0913 47.38C37.2213 47.26 37.4013 47.2 37.6313 47.2C37.908 47.2 38.128 47.285 38.2913 47.455C38.4547 47.625 38.5363 47.8567 38.5363 48.15V50H38.0863V48.2C38.0863 48.0033 38.033 47.8517 37.9263 47.745C37.823 47.635 37.6813 47.58 37.5013 47.58C37.3147 47.58 37.1663 47.6383 37.0563 47.755C36.9497 47.8717 36.8963 48.0367 36.8963 48.25V50H36.4463ZM40.4844 50.04C40.2644 50.04 40.0744 49.9983 39.9144 49.915C39.7544 49.8317 39.6294 49.7117 39.5394 49.555C39.4527 49.395 39.4094 49.2067 39.4094 48.99V48.26C39.4094 48.04 39.4527 47.8517 39.5394 47.695C39.6294 47.5383 39.7544 47.4183 39.9144 47.335C40.0744 47.2517 40.2644 47.21 40.4844 47.21C40.7044 47.21 40.8944 47.2517 41.0544 47.335C41.2144 47.4183 41.3377 47.5383 41.4244 47.695C41.5144 47.8517 41.5594 48.0383 41.5594 48.255V48.99C41.5594 49.2067 41.5144 49.395 41.4244 49.555C41.3377 49.7117 41.2144 49.8317 41.0544 49.915C40.8944 49.9983 40.7044 50.04 40.4844 50.04ZM40.4844 49.64C40.681 49.64 40.8344 49.585 40.9444 49.475C41.0544 49.365 41.1094 49.2033 41.1094 48.99V48.26C41.1094 48.0467 41.0544 47.885 40.9444 47.775C40.8344 47.665 40.681 47.61 40.4844 47.61C40.291 47.61 40.1377 47.665 40.0244 47.775C39.9144 47.885 39.8594 48.0467 39.8594 48.26V48.99C39.8594 49.2033 39.9144 49.365 40.0244 49.475C40.1377 49.585 40.291 49.64 40.4844 49.64ZM42.3124 50V47.25H42.7074V47.58H42.7974L42.7274 47.7C42.7274 47.5467 42.7674 47.425 42.8474 47.335C42.9308 47.245 43.0424 47.2 43.1824 47.2C43.3358 47.2 43.4541 47.2567 43.5374 47.37C43.6208 47.4833 43.6624 47.6433 43.6624 47.85L43.5274 47.58H43.7374L43.6424 47.7C43.6424 47.5467 43.6841 47.425 43.7674 47.335C43.8541 47.245 43.9674 47.2 44.1074 47.2C44.2808 47.2 44.4141 47.265 44.5074 47.395C44.6041 47.525 44.6524 47.6967 44.6524 47.91V50H44.2374V47.905C44.2374 47.7917 44.2124 47.7033 44.1624 47.64C44.1158 47.5767 44.0458 47.545 43.9524 47.545C43.8624 47.545 43.7908 47.5767 43.7374 47.64C43.6874 47.7 43.6624 47.7867 43.6624 47.9V50H43.3024V47.905C43.3024 47.7883 43.2758 47.7 43.2224 47.64C43.1724 47.5767 43.1008 47.545 43.0074 47.545C42.9141 47.545 42.8441 47.5767 42.7974 47.64C42.7508 47.7 42.7274 47.7867 42.7274 47.9V50H42.3124ZM46.4805 50.05C46.2638 50.05 46.0738 50.0067 45.9105 49.92C45.7505 49.8333 45.6255 49.7117 45.5355 49.555C45.4488 49.395 45.4055 49.21 45.4055 49V48.25C45.4055 48.0367 45.4488 47.8517 45.5355 47.695C45.6255 47.5383 45.7505 47.4167 45.9105 47.33C46.0738 47.2433 46.2638 47.2 46.4805 47.2C46.6971 47.2 46.8855 47.2433 47.0455 47.33C47.2088 47.4167 47.3338 47.5383 47.4205 47.695C47.5105 47.8517 47.5555 48.0367 47.5555 48.25V48.735H45.8455V49C45.8455 49.2167 45.9005 49.3833 46.0105 49.5C46.1205 49.6133 46.2771 49.67 46.4805 49.67C46.6538 49.67 46.7938 49.64 46.9005 49.58C47.0071 49.5167 47.0721 49.4233 47.0955 49.3H47.5455C47.5155 49.53 47.4021 49.7133 47.2055 49.85C47.0121 49.9833 46.7705 50.05 46.4805 50.05ZM47.1155 48.435V48.25C47.1155 48.0333 47.0605 47.8667 46.9505 47.75C46.8438 47.6333 46.6871 47.575 46.4805 47.575C46.2771 47.575 46.1205 47.6333 46.0105 47.75C45.9005 47.8667 45.8455 48.0333 45.8455 48.25V48.395H47.1505L47.1155 48.435ZM48.3535 50.55L50.1285 45.85H50.6035L48.8285 50.55H48.3535ZM51.3066 50V47.25H51.7016V47.58H51.7916L51.7216 47.7C51.7216 47.5467 51.7616 47.425 51.8416 47.335C51.9249 47.245 52.0366 47.2 52.1766 47.2C52.3299 47.2 52.4482 47.2567 52.5316 47.37C52.6149 47.4833 52.6566 47.6433 52.6566 47.85L52.5216 47.58H52.7316L52.6366 47.7C52.6366 47.5467 52.6782 47.425 52.7616 47.335C52.8482 47.245 52.9616 47.2 53.1016 47.2C53.2749 47.2 53.4082 47.265 53.5016 47.395C53.5982 47.525 53.6466 47.6967 53.6466 47.91V50H53.2316V47.905C53.2316 47.7917 53.2066 47.7033 53.1566 47.64C53.1099 47.5767 53.0399 47.545 52.9466 47.545C52.8566 47.545 52.7849 47.5767 52.7316 47.64C52.6816 47.7 52.6566 47.7867 52.6566 47.9V50H52.2966V47.905C52.2966 47.7883 52.2699 47.7 52.2166 47.64C52.1666 47.5767 52.0949 47.545 52.0016 47.545C51.9082 47.545 51.8382 47.5767 51.7916 47.64C51.7449 47.7 51.7216 47.7867 51.7216 47.9V50H51.3066ZM55.2346 50.05C54.9446 50.05 54.7163 49.9767 54.5496 49.83C54.3829 49.68 54.2996 49.4783 54.2996 49.225C54.2996 48.9683 54.3829 48.7667 54.5496 48.62C54.7163 48.4733 54.9413 48.4 55.2246 48.4H56.0746V48.125C56.0746 47.955 56.0229 47.825 55.9196 47.735C55.8196 47.6417 55.6763 47.595 55.4896 47.595C55.3263 47.595 55.1896 47.63 55.0796 47.7C54.9696 47.7667 54.9063 47.8583 54.8896 47.975H54.4396C54.4696 47.7383 54.5813 47.55 54.7746 47.41C54.9679 47.27 55.2096 47.2 55.4996 47.2C55.8163 47.2 56.0663 47.2817 56.2496 47.445C56.4329 47.6083 56.5246 47.83 56.5246 48.11V50H56.0846V49.475H56.0096L56.0846 49.4C56.0846 49.6 56.0063 49.7583 55.8496 49.875C55.6963 49.9917 55.4913 50.05 55.2346 50.05ZM55.3446 49.695C55.5579 49.695 55.7329 49.6417 55.8696 49.535C56.0063 49.4283 56.0746 49.2917 56.0746 49.125V48.735H55.2346C55.0846 48.735 54.9663 48.7767 54.8796 48.86C54.7929 48.9433 54.7496 49.0567 54.7496 49.2C54.7496 49.3533 54.8013 49.475 54.9046 49.565C55.0113 49.6517 55.1579 49.695 55.3446 49.695ZM58.7727 50C58.536 50 58.351 49.9367 58.2177 49.81C58.0877 49.6833 58.0227 49.505 58.0227 49.275V47.66H57.2477V47.25H58.0227V46.475H58.4727V47.25H59.5727V47.66H58.4727V49.275C58.4727 49.485 58.5727 49.59 58.7727 49.59H59.5227V50H58.7727ZM61.4707 50.05C61.254 50.05 61.064 50.0067 60.9007 49.92C60.7407 49.8333 60.6157 49.7117 60.5257 49.555C60.439 49.395 60.3957 49.21 60.3957 49V48.25C60.3957 48.0367 60.439 47.8517 60.5257 47.695C60.6157 47.5383 60.7407 47.4167 60.9007 47.33C61.064 47.2433 61.254 47.2 61.4707 47.2C61.6874 47.2 61.8757 47.2433 62.0357 47.33C62.199 47.4167 62.324 47.5383 62.4107 47.695C62.5007 47.8517 62.5457 48.0367 62.5457 48.25V48.735H60.8357V49C60.8357 49.2167 60.8907 49.3833 61.0007 49.5C61.1107 49.6133 61.2674 49.67 61.4707 49.67C61.644 49.67 61.784 49.64 61.8907 49.58C61.9974 49.5167 62.0624 49.4233 62.0857 49.3H62.5357C62.5057 49.53 62.3924 49.7133 62.1957 49.85C62.0024 49.9833 61.7607 50.05 61.4707 50.05ZM62.1057 48.435V48.25C62.1057 48.0333 62.0507 47.8667 61.9407 47.75C61.834 47.6333 61.6774 47.575 61.4707 47.575C61.2674 47.575 61.1107 47.6333 61.0007 47.75C60.8907 47.8667 60.8357 48.0333 60.8357 48.25V48.395H62.1407L62.1057 48.435ZM64.4688 50.05C64.2521 50.05 64.0621 50.0067 63.8988 49.92C63.7388 49.8333 63.6138 49.7117 63.5238 49.555C63.4371 49.395 63.3938 49.21 63.3938 49V48.25C63.3938 48.0367 63.4371 47.8517 63.5238 47.695C63.6138 47.5383 63.7388 47.4167 63.8988 47.33C64.0621 47.2433 64.2521 47.2 64.4688 47.2C64.6854 47.2 64.8738 47.2433 65.0338 47.33C65.1971 47.4167 65.3221 47.5383 65.4088 47.695C65.4988 47.8517 65.5438 48.0367 65.5438 48.25V48.735H63.8338V49C63.8338 49.2167 63.8888 49.3833 63.9988 49.5C64.1088 49.6133 64.2654 49.67 64.4688 49.67C64.6421 49.67 64.7821 49.64 64.8888 49.58C64.9954 49.5167 65.0604 49.4233 65.0838 49.3H65.5338C65.5038 49.53 65.3904 49.7133 65.1938 49.85C65.0004 49.9833 64.7588 50.05 64.4688 50.05ZM65.1038 48.435V48.25C65.1038 48.0333 65.0488 47.8667 64.9388 47.75C64.8321 47.6333 64.6754 47.575 64.4688 47.575C64.2654 47.575 64.1088 47.6333 63.9988 47.75C63.8888 47.8667 63.8338 48.0333 63.8338 48.25V48.395H65.1388L65.1038 48.435ZM67.3818 50.04C67.1951 50.04 67.0318 50.0117 66.8918 49.955C66.7551 49.895 66.6451 49.8117 66.5618 49.705C66.4818 49.5983 66.4335 49.4717 66.4168 49.325H66.8668C66.8868 49.4217 66.9401 49.4983 67.0268 49.555C67.1168 49.6117 67.2351 49.64 67.3818 49.64H67.5918C67.7685 49.64 67.9001 49.605 67.9868 49.535C68.0735 49.4617 68.1168 49.365 68.1168 49.245C68.1168 49.1283 68.0768 49.0367 67.9968 48.97C67.9201 48.9 67.8051 48.8533 67.6518 48.83L67.2818 48.77C67.0118 48.7233 66.8101 48.64 66.6768 48.52C66.5468 48.3967 66.4818 48.2183 66.4818 47.985C66.4818 47.7383 66.5601 47.5483 66.7168 47.415C66.8735 47.2783 67.1085 47.21 67.4218 47.21H67.6118C67.8751 47.21 68.0868 47.2717 68.2468 47.395C68.4068 47.5183 68.5035 47.685 68.5368 47.895H68.0868C68.0668 47.8083 68.0168 47.74 67.9368 47.69C67.8568 47.6367 67.7485 47.61 67.6118 47.61H67.4218C67.2518 47.61 67.1268 47.6417 67.0468 47.705C66.9701 47.7683 66.9318 47.8633 66.9318 47.99C66.9318 48.1033 66.9651 48.1867 67.0318 48.24C67.0985 48.2933 67.2035 48.3317 67.3468 48.355L67.7168 48.415C68.0135 48.4617 68.2285 48.5483 68.3618 48.675C68.4985 48.8017 68.5668 48.985 68.5668 49.225C68.5668 49.4783 68.4851 49.6783 68.3218 49.825C68.1618 49.9683 67.9185 50.04 67.5918 50.04H67.3818ZM69.3398 50.55L71.1148 45.85H71.5898L69.8148 50.55H69.3398ZM72.4229 50V46.35H73.3679C73.6046 46.35 73.8079 46.395 73.9779 46.485C74.1512 46.575 74.2846 46.7017 74.3779 46.865C74.4746 47.0283 74.5229 47.2217 74.5229 47.445V48.9C74.5229 49.1233 74.4746 49.3183 74.3779 49.485C74.2846 49.6483 74.1512 49.775 73.9779 49.865C73.8079 49.955 73.6046 50 73.3679 50H72.4229ZM72.8729 49.6H73.3679C73.5879 49.6 73.7596 49.5383 73.8829 49.415C74.0096 49.2917 74.0729 49.12 74.0729 48.9V47.445C74.0729 47.2283 74.0096 47.0583 73.8829 46.935C73.7596 46.8117 73.5879 46.75 73.3679 46.75H72.8729V49.6ZM76.4609 50.05C76.2443 50.05 76.0543 50.0067 75.8909 49.92C75.7309 49.8333 75.6059 49.7117 75.5159 49.555C75.4293 49.395 75.3859 49.21 75.3859 49V48.25C75.3859 48.0367 75.4293 47.8517 75.5159 47.695C75.6059 47.5383 75.7309 47.4167 75.8909 47.33C76.0543 47.2433 76.2443 47.2 76.4609 47.2C76.6776 47.2 76.8659 47.2433 77.0259 47.33C77.1893 47.4167 77.3143 47.5383 77.4009 47.695C77.4909 47.8517 77.5359 48.0367 77.5359 48.25V48.735H75.8259V49C75.8259 49.2167 75.8809 49.3833 75.9909 49.5C76.1009 49.6133 76.2576 49.67 76.4609 49.67C76.6343 49.67 76.7743 49.64 76.8809 49.58C76.9876 49.5167 77.0526 49.4233 77.0759 49.3H77.5259C77.4959 49.53 77.3826 49.7133 77.1859 49.85C76.9926 49.9833 76.7509 50.05 76.4609 50.05ZM77.0959 48.435V48.25C77.0959 48.0333 77.0409 47.8667 76.9309 47.75C76.8243 47.6333 76.6676 47.575 76.4609 47.575C76.2576 47.575 76.1009 47.6333 75.9909 47.75C75.8809 47.8667 75.8259 48.0333 75.8259 48.25V48.395H77.1309L77.0959 48.435ZM79.374 50.04C79.1873 50.04 79.024 50.0117 78.884 49.955C78.7473 49.895 78.6373 49.8117 78.554 49.705C78.474 49.5983 78.4257 49.4717 78.409 49.325H78.859C78.879 49.4217 78.9323 49.4983 79.019 49.555C79.109 49.6117 79.2273 49.64 79.374 49.64H79.584C79.7607 49.64 79.8923 49.605 79.979 49.535C80.0657 49.4617 80.109 49.365 80.109 49.245C80.109 49.1283 80.069 49.0367 79.989 48.97C79.9123 48.9 79.7973 48.8533 79.644 48.83L79.274 48.77C79.004 48.7233 78.8023 48.64 78.669 48.52C78.539 48.3967 78.474 48.2183 78.474 47.985C78.474 47.7383 78.5523 47.5483 78.709 47.415C78.8657 47.2783 79.1007 47.21 79.414 47.21H79.604C79.8673 47.21 80.079 47.2717 80.239 47.395C80.399 47.5183 80.4957 47.685 80.529 47.895H80.079C80.059 47.8083 80.009 47.74 79.929 47.69C79.849 47.6367 79.7407 47.61 79.604 47.61H79.414C79.244 47.61 79.119 47.6417 79.039 47.705C78.9623 47.7683 78.924 47.8633 78.924 47.99C78.924 48.1033 78.9573 48.1867 79.024 48.24C79.0907 48.2933 79.1957 48.3317 79.339 48.355L79.709 48.415C80.0057 48.4617 80.2207 48.5483 80.354 48.675C80.4907 48.8017 80.559 48.985 80.559 49.225C80.559 49.4783 80.4773 49.6783 80.314 49.825C80.154 49.9683 79.9107 50.04 79.584 50.04H79.374ZM81.432 50V46.35H81.882V48.385H82.412L83.212 47.25H83.727L82.802 48.56L83.742 50H83.217L82.417 48.775H81.882V50H81.432ZM85.7551 50C85.5184 50 85.3334 49.9367 85.2001 49.81C85.0701 49.6833 85.0051 49.505 85.0051 49.275V47.66H84.2301V47.25H85.0051V46.475H85.4551V47.25H86.5551V47.66H85.4551V49.275C85.4551 49.485 85.5551 49.59 85.7551 49.59H86.5051V50H85.7551ZM88.4531 50.04C88.2331 50.04 88.0431 49.9983 87.8831 49.915C87.7231 49.8317 87.5981 49.7117 87.5081 49.555C87.4215 49.395 87.3781 49.2067 87.3781 48.99V48.26C87.3781 48.04 87.4215 47.8517 87.5081 47.695C87.5981 47.5383 87.7231 47.4183 87.8831 47.335C88.0431 47.2517 88.2331 47.21 88.4531 47.21C88.6731 47.21 88.8631 47.2517 89.0231 47.335C89.1831 47.4183 89.3065 47.5383 89.3931 47.695C89.4831 47.8517 89.5281 48.0383 89.5281 48.255V48.99C89.5281 49.2067 89.4831 49.395 89.3931 49.555C89.3065 49.7117 89.1831 49.8317 89.0231 49.915C88.8631 49.9983 88.6731 50.04 88.4531 50.04ZM88.4531 49.64C88.6498 49.64 88.8031 49.585 88.9131 49.475C89.0231 49.365 89.0781 49.2033 89.0781 48.99V48.26C89.0781 48.0467 89.0231 47.885 88.9131 47.775C88.8031 47.665 88.6498 47.61 88.4531 47.61C88.2598 47.61 88.1065 47.665 87.9931 47.775C87.8831 47.885 87.8281 48.0467 87.8281 48.26V48.99C87.8281 49.2033 87.8831 49.365 87.9931 49.475C88.1065 49.585 88.2598 49.64 88.4531 49.64ZM90.4112 50.9V47.25H90.8612V47.775H90.9512L90.8612 47.88C90.8612 47.67 90.9295 47.505 91.0662 47.385C91.2062 47.2617 91.3895 47.2 91.6162 47.2C91.8928 47.2 92.1128 47.2917 92.2762 47.475C92.4428 47.655 92.5262 47.9033 92.5262 48.22V49.025C92.5262 49.235 92.4878 49.4167 92.4112 49.57C92.3378 49.7233 92.2328 49.8417 92.0962 49.925C91.9628 50.0083 91.8028 50.05 91.6162 50.05C91.3928 50.05 91.2112 49.9883 91.0712 49.865C90.9312 49.7417 90.8612 49.5767 90.8612 49.37L90.9512 49.475H90.8512L90.8612 50.1V50.9H90.4112ZM91.4662 49.66C91.6562 49.66 91.8045 49.6033 91.9112 49.49C92.0212 49.3767 92.0762 49.2133 92.0762 49V48.25C92.0762 48.0367 92.0212 47.8733 91.9112 47.76C91.8045 47.6467 91.6562 47.59 91.4662 47.59C91.2828 47.59 91.1362 47.6483 91.0262 47.765C90.9162 47.8817 90.8612 48.0433 90.8612 48.25V49C90.8612 49.2067 90.9162 49.3683 91.0262 49.485C91.1362 49.6017 91.2828 49.66 91.4662 49.66ZM93.3242 50.55L95.0992 45.85H95.5742L93.7992 50.55H93.3242ZM97.3623 50.04C97.1756 50.04 97.0123 50.0117 96.8723 49.955C96.7356 49.895 96.6256 49.8117 96.5423 49.705C96.4623 49.5983 96.4139 49.4717 96.3973 49.325H96.8473C96.8673 49.4217 96.9206 49.4983 97.0073 49.555C97.0973 49.6117 97.2156 49.64 97.3623 49.64H97.5723C97.7489 49.64 97.8806 49.605 97.9673 49.535C98.0539 49.4617 98.0973 49.365 98.0973 49.245C98.0973 49.1283 98.0573 49.0367 97.9773 48.97C97.9006 48.9 97.7856 48.8533 97.6323 48.83L97.2623 48.77C96.9923 48.7233 96.7906 48.64 96.6573 48.52C96.5273 48.3967 96.4623 48.2183 96.4623 47.985C96.4623 47.7383 96.5406 47.5483 96.6973 47.415C96.8539 47.2783 97.0889 47.21 97.4023 47.21H97.5923C97.8556 47.21 98.0673 47.2717 98.2273 47.395C98.3873 47.5183 98.4839 47.685 98.5173 47.895H98.0673C98.0473 47.8083 97.9973 47.74 97.9173 47.69C97.8373 47.6367 97.7289 47.61 97.5923 47.61H97.4023C97.2323 47.61 97.1073 47.6417 97.0273 47.705C96.9506 47.7683 96.9123 47.8633 96.9123 47.99C96.9123 48.1033 96.9456 48.1867 97.0123 48.24C97.0789 48.2933 97.1839 48.3317 97.3273 48.355L97.6973 48.415C97.9939 48.4617 98.2089 48.5483 98.3423 48.675C98.4789 48.8017 98.5473 48.985 98.5473 49.225C98.5473 49.4783 98.4656 49.6783 98.3023 49.825C98.1423 49.9683 97.8989 50.04 97.5723 50.04H97.3623ZM100.445 50.04C100.225 50.04 100.035 49.9983 99.8753 49.915C99.7153 49.8317 99.5903 49.7117 99.5003 49.555C99.4136 49.395 99.3703 49.2067 99.3703 48.99V48.26C99.3703 48.04 99.4136 47.8517 99.5003 47.695C99.5903 47.5383 99.7153 47.4183 99.8753 47.335C100.035 47.2517 100.225 47.21 100.445 47.21C100.665 47.21 100.855 47.2517 101.015 47.335C101.175 47.4183 101.299 47.5383 101.385 47.695C101.475 47.8517 101.52 48.0383 101.52 48.255V48.99C101.52 49.2067 101.475 49.395 101.385 49.555C101.299 49.7117 101.175 49.8317 101.015 49.915C100.855 49.9983 100.665 50.04 100.445 50.04ZM100.445 49.64C100.642 49.64 100.795 49.585 100.905 49.475C101.015 49.365 101.07 49.2033 101.07 48.99V48.26C101.07 48.0467 101.015 47.885 100.905 47.775C100.795 47.665 100.642 47.61 100.445 47.61C100.252 47.61 100.099 47.665 99.9853 47.775C99.8753 47.885 99.8203 48.0467 99.8203 48.26V48.99C99.8203 49.2033 99.8753 49.365 99.9853 49.475C100.099 49.585 100.252 49.64 100.445 49.64ZM103.438 50.05C103.122 50.05 102.868 49.9567 102.678 49.77C102.488 49.58 102.393 49.3233 102.393 49V47.25H102.843V49C102.843 49.2067 102.897 49.3683 103.003 49.485C103.11 49.5983 103.255 49.655 103.438 49.655C103.625 49.655 103.772 49.5983 103.878 49.485C103.988 49.3683 104.043 49.2067 104.043 49V47.25H104.493V49C104.493 49.3233 104.397 49.58 104.203 49.77C104.01 49.9567 103.755 50.05 103.438 50.05ZM105.401 50V47.25H105.851V47.775H105.946L105.851 47.88C105.851 47.6633 105.916 47.4967 106.046 47.38C106.176 47.26 106.356 47.2 106.586 47.2C106.863 47.2 107.083 47.285 107.246 47.455C107.41 47.625 107.491 47.8567 107.491 48.15V50H107.041V48.2C107.041 48.0033 106.988 47.8533 106.881 47.75C106.778 47.6433 106.636 47.59 106.456 47.59C106.27 47.59 106.121 47.6467 106.011 47.76C105.905 47.8733 105.851 48.0367 105.851 48.25V50H105.401ZM109.279 50.05C109.006 50.05 108.784 49.9583 108.614 49.775C108.448 49.5917 108.364 49.3433 108.364 49.03V48.225C108.364 47.9083 108.448 47.6583 108.614 47.475C108.781 47.2917 109.003 47.2 109.279 47.2C109.506 47.2 109.688 47.2617 109.824 47.385C109.961 47.5083 110.029 47.6733 110.029 47.88L109.939 47.775H110.039L110.029 47.15V46.35H110.479V50H110.029V49.475H109.939L110.029 49.37C110.029 49.58 109.961 49.7467 109.824 49.87C109.688 49.99 109.506 50.05 109.279 50.05ZM109.429 49.66C109.616 49.66 109.763 49.6017 109.869 49.485C109.976 49.3683 110.029 49.2067 110.029 49V48.25C110.029 48.0433 109.976 47.8817 109.869 47.765C109.763 47.6483 109.616 47.59 109.429 47.59C109.239 47.59 109.089 47.6467 108.979 47.76C108.869 47.8733 108.814 48.0367 108.814 48.25V49C108.814 49.2133 108.869 49.3767 108.979 49.49C109.089 49.6033 109.239 49.66 109.429 49.66ZM112.438 50.05C112.311 50.05 112.209 50.0133 112.133 49.94C112.059 49.8667 112.023 49.7683 112.023 49.645C112.023 49.515 112.059 49.4117 112.133 49.335C112.209 49.2583 112.311 49.22 112.438 49.22C112.564 49.22 112.664 49.2583 112.738 49.335C112.814 49.4117 112.853 49.515 112.853 49.645C112.853 49.7683 112.814 49.8667 112.738 49.94C112.664 50.0133 112.564 50.05 112.438 50.05ZM114.266 50V47.25H114.661V47.58H114.751L114.681 47.7C114.681 47.5467 114.721 47.425 114.801 47.335C114.884 47.245 114.996 47.2 115.136 47.2C115.289 47.2 115.407 47.2567 115.491 47.37C115.574 47.4833 115.616 47.6433 115.616 47.85L115.481 47.58H115.691L115.596 47.7C115.596 47.5467 115.637 47.425 115.721 47.335C115.807 47.245 115.921 47.2 116.061 47.2C116.234 47.2 116.367 47.265 116.461 47.395C116.557 47.525 116.606 47.6967 116.606 47.91V50H116.191V47.905C116.191 47.7917 116.166 47.7033 116.116 47.64C116.069 47.5767 115.999 47.545 115.906 47.545C115.816 47.545 115.744 47.5767 115.691 47.64C115.641 47.7 115.616 47.7867 115.616 47.9V50H115.256V47.905C115.256 47.7883 115.229 47.7 115.176 47.64C115.126 47.5767 115.054 47.545 114.961 47.545C114.867 47.545 114.797 47.5767 114.751 47.64C114.704 47.7 114.681 47.7867 114.681 47.9V50H114.266ZM117.394 50.9V47.25H117.844V47.775H117.934L117.844 47.88C117.844 47.67 117.912 47.505 118.049 47.385C118.189 47.2617 118.372 47.2 118.599 47.2C118.875 47.2 119.095 47.2917 119.259 47.475C119.425 47.655 119.509 47.9033 119.509 48.22V49.025C119.509 49.235 119.47 49.4167 119.394 49.57C119.32 49.7233 119.215 49.8417 119.079 49.925C118.945 50.0083 118.785 50.05 118.599 50.05C118.375 50.05 118.194 49.9883 118.054 49.865C117.914 49.7417 117.844 49.5767 117.844 49.37L117.934 49.475H117.834L117.844 50.1V50.9H117.394ZM118.449 49.66C118.639 49.66 118.787 49.6033 118.894 49.49C119.004 49.3767 119.059 49.2133 119.059 49V48.25C119.059 48.0367 119.004 47.8733 118.894 47.76C118.787 47.6467 118.639 47.59 118.449 47.59C118.265 47.59 118.119 47.6483 118.009 47.765C117.899 47.8817 117.844 48.0433 117.844 48.25V49C117.844 49.2067 117.899 49.3683 118.009 49.485C118.119 49.6017 118.265 49.66 118.449 49.66ZM121.377 50.05C121.157 50.05 120.963 50.0067 120.797 49.92C120.633 49.83 120.507 49.7067 120.417 49.55C120.327 49.3933 120.282 49.21 120.282 49H120.732C120.732 49.2033 120.788 49.3633 120.902 49.48C121.018 49.5933 121.178 49.65 121.382 49.65C121.588 49.65 121.748 49.59 121.862 49.47C121.975 49.35 122.032 49.1933 122.032 49V48.74C122.032 48.5333 121.975 48.3733 121.862 48.26C121.748 48.1467 121.588 48.09 121.382 48.09H121.007V47.64L121.912 46.76H120.432V46.35H122.367V46.8L121.392 47.745V47.69C121.725 47.69 121.99 47.785 122.187 47.975C122.383 48.165 122.482 48.42 122.482 48.74V49C122.482 49.21 122.435 49.3933 122.342 49.55C122.252 49.7067 122.123 49.83 121.957 49.92C121.79 50.0067 121.597 50.05 121.377 50.05Z" fill="white"/>
<path d="M15.805 61.9V61.49H16.68C16.82 61.49 16.9217 61.4583 16.985 61.395C17.0517 61.3317 17.085 61.2333 17.085 61.1V60.75L17.095 60.25H17.005L17.09 60.175C17.09 60.375 17.0233 60.5333 16.89 60.65C16.7567 60.7667 16.5783 60.825 16.355 60.825C16.0717 60.825 15.8483 60.7333 15.685 60.55C15.5217 60.3633 15.44 60.1133 15.44 59.8V59.22C15.44 58.9067 15.5217 58.6583 15.685 58.475C15.8483 58.2917 16.0717 58.2 16.355 58.2C16.5783 58.2 16.7567 58.2583 16.89 58.375C17.0233 58.4917 17.09 58.65 17.09 58.85L17.005 58.775H17.09V58.25H17.535V61.1C17.535 61.3467 17.4583 61.5417 17.305 61.685C17.155 61.8283 16.945 61.9 16.675 61.9H15.805ZM16.49 60.435C16.6767 60.435 16.8233 60.3767 16.93 60.26C17.0367 60.1433 17.09 59.9817 17.09 59.775V59.25C17.09 59.0433 17.0367 58.8817 16.93 58.765C16.8233 58.6483 16.6767 58.59 16.49 58.59C16.3 58.59 16.1517 58.6467 16.045 58.76C15.9417 58.8733 15.89 59.0367 15.89 59.25V59.775C15.89 59.9883 15.9417 60.1517 16.045 60.265C16.1517 60.3783 16.3 60.435 16.49 60.435ZM18.553 61V58.25H18.993V58.775H19.098L18.953 59.1C18.953 58.8033 19.0164 58.58 19.143 58.43C19.273 58.2767 19.4647 58.2 19.718 58.2C20.008 58.2 20.238 58.2917 20.408 58.475C20.5814 58.655 20.668 58.9 20.668 59.21V59.375H20.218V59.25C20.218 59.0333 20.1647 58.8683 20.058 58.755C19.9547 58.6383 19.8064 58.58 19.613 58.58C19.423 58.58 19.273 58.6383 19.163 58.755C19.0564 58.8717 19.003 59.0367 19.003 59.25V61H18.553ZM22.4961 61.04C22.2761 61.04 22.0861 60.9983 21.9261 60.915C21.7661 60.8317 21.6411 60.7117 21.5511 60.555C21.4644 60.395 21.4211 60.2067 21.4211 59.99V59.26C21.4211 59.04 21.4644 58.8517 21.5511 58.695C21.6411 58.5383 21.7661 58.4183 21.9261 58.335C22.0861 58.2517 22.2761 58.21 22.4961 58.21C22.7161 58.21 22.9061 58.2517 23.0661 58.335C23.2261 58.4183 23.3494 58.5383 23.4361 58.695C23.5261 58.8517 23.5711 59.0383 23.5711 59.255V59.99C23.5711 60.2067 23.5261 60.395 23.4361 60.555C23.3494 60.7117 23.2261 60.8317 23.0661 60.915C22.9061 60.9983 22.7161 61.04 22.4961 61.04ZM22.4961 60.64C22.6928 60.64 22.8461 60.585 22.9561 60.475C23.0661 60.365 23.1211 60.2033 23.1211 59.99V59.26C23.1211 59.0467 23.0661 58.885 22.9561 58.775C22.8461 58.665 22.6928 58.61 22.4961 58.61C22.3028 58.61 22.1494 58.665 22.0361 58.775C21.9261 58.885 21.8711 59.0467 21.8711 59.26V59.99C21.8711 60.2033 21.9261 60.365 22.0361 60.475C22.1494 60.585 22.3028 60.64 22.4961 60.64ZM25.4891 61.05C25.1725 61.05 24.9191 60.9567 24.7291 60.77C24.5391 60.58 24.4441 60.3233 24.4441 60V58.25H24.8941V60C24.8941 60.2067 24.9475 60.3683 25.0541 60.485C25.1608 60.5983 25.3058 60.655 25.4891 60.655C25.6758 60.655 25.8225 60.5983 25.9291 60.485C26.0391 60.3683 26.0941 60.2067 26.0941 60V58.25H26.5441V60C26.5441 60.3233 26.4475 60.58 26.2541 60.77C26.0608 60.9567 25.8058 61.05 25.4891 61.05ZM27.4522 61.9V58.25H27.9022V58.775H27.9922L27.9022 58.88C27.9022 58.67 27.9705 58.505 28.1072 58.385C28.2472 58.2617 28.4305 58.2 28.6572 58.2C28.9339 58.2 29.1539 58.2917 29.3172 58.475C29.4839 58.655 29.5672 58.9033 29.5672 59.22V60.025C29.5672 60.235 29.5289 60.4167 29.4522 60.57C29.3789 60.7233 29.2739 60.8417 29.1372 60.925C29.0039 61.0083 28.8439 61.05 28.6572 61.05C28.4339 61.05 28.2522 60.9883 28.1122 60.865C27.9722 60.7417 27.9022 60.5767 27.9022 60.37L27.9922 60.475H27.8922L27.9022 61.1V61.9H27.4522ZM28.5072 60.66C28.6972 60.66 28.8455 60.6033 28.9522 60.49C29.0622 60.3767 29.1172 60.2133 29.1172 60V59.25C29.1172 59.0367 29.0622 58.8733 28.9522 58.76C28.8455 58.6467 28.6972 58.59 28.5072 58.59C28.3239 58.59 28.1772 58.6483 28.0672 58.765C27.9572 58.8817 27.9022 59.0433 27.9022 59.25V60C27.9022 60.2067 27.9572 60.3683 28.0672 60.485C28.1772 60.6017 28.3239 60.66 28.5072 60.66ZM31.2502 61.05C30.9602 61.05 30.7319 60.9767 30.5652 60.83C30.3986 60.68 30.3152 60.4783 30.3152 60.225C30.3152 59.9683 30.3986 59.7667 30.5652 59.62C30.7319 59.4733 30.9569 59.4 31.2402 59.4H32.0902V59.125C32.0902 58.955 32.0386 58.825 31.9352 58.735C31.8352 58.6417 31.6919 58.595 31.5052 58.595C31.3419 58.595 31.2052 58.63 31.0952 58.7C30.9852 58.7667 30.9219 58.8583 30.9052 58.975H30.4552C30.4852 58.7383 30.5969 58.55 30.7902 58.41C30.9836 58.27 31.2252 58.2 31.5152 58.2C31.8319 58.2 32.0819 58.2817 32.2652 58.445C32.4486 58.6083 32.5402 58.83 32.5402 59.11V61H32.1002V60.475H32.0252L32.1002 60.4C32.1002 60.6 32.0219 60.7583 31.8652 60.875C31.7119 60.9917 31.5069 61.05 31.2502 61.05ZM31.3602 60.695C31.5736 60.695 31.7486 60.6417 31.8852 60.535C32.0219 60.4283 32.0902 60.2917 32.0902 60.125V59.735H31.2502C31.1002 59.735 30.9819 59.7767 30.8952 59.86C30.8086 59.9433 30.7652 60.0567 30.7652 60.2C30.7652 60.3533 30.8169 60.475 30.9202 60.565C31.0269 60.6517 31.1736 60.695 31.3602 60.695ZM34.3283 61.05C34.0549 61.05 33.8333 60.9583 33.6633 60.775C33.4966 60.5917 33.4133 60.3433 33.4133 60.03V59.225C33.4133 58.9083 33.4966 58.6583 33.6633 58.475C33.8299 58.2917 34.0516 58.2 34.3283 58.2C34.5549 58.2 34.7366 58.2617 34.8733 58.385C35.0099 58.5083 35.0783 58.6733 35.0783 58.88L34.9883 58.775H35.0883L35.0783 58.15V57.35H35.5283V61H35.0783V60.475H34.9883L35.0783 60.37C35.0783 60.58 35.0099 60.7467 34.8733 60.87C34.7366 60.99 34.5549 61.05 34.3283 61.05ZM34.4783 60.66C34.6649 60.66 34.8116 60.6017 34.9183 60.485C35.0249 60.3683 35.0783 60.2067 35.0783 60V59.25C35.0783 59.0433 35.0249 58.8817 34.9183 58.765C34.8116 58.6483 34.6649 58.59 34.4783 58.59C34.2883 58.59 34.1383 58.6467 34.0283 58.76C33.9183 58.8733 33.8633 59.0367 33.8633 59.25V60C33.8633 60.2133 33.9183 60.3767 34.0283 60.49C34.1383 60.6033 34.2883 60.66 34.4783 60.66ZM37.3263 61.05C37.053 61.05 36.8313 60.9583 36.6613 60.775C36.4947 60.5917 36.4113 60.3433 36.4113 60.03V59.225C36.4113 58.9083 36.4947 58.6583 36.6613 58.475C36.828 58.2917 37.0497 58.2 37.3263 58.2C37.553 58.2 37.7347 58.2617 37.8713 58.385C38.008 58.5083 38.0763 58.6733 38.0763 58.88L37.9863 58.775H38.0863L38.0763 58.15V57.35H38.5263V61H38.0763V60.475H37.9863L38.0763 60.37C38.0763 60.58 38.008 60.7467 37.8713 60.87C37.7347 60.99 37.553 61.05 37.3263 61.05ZM37.4763 60.66C37.663 60.66 37.8097 60.6017 37.9163 60.485C38.023 60.3683 38.0763 60.2067 38.0763 60V59.25C38.0763 59.0433 38.023 58.8817 37.9163 58.765C37.8097 58.6483 37.663 58.59 37.4763 58.59C37.2863 58.59 37.1363 58.6467 37.0263 58.76C36.9163 58.8733 36.8613 59.0367 36.8613 59.25V60C36.8613 60.2133 36.9163 60.3767 37.0263 60.49C37.1363 60.6033 37.2863 60.66 37.4763 60.66ZM42.6824 59.55V59.15H44.2824V59.55H42.6824ZM45.7855 61.9V61.49H46.6605C46.8005 61.49 46.9021 61.4583 46.9655 61.395C47.0321 61.3317 47.0655 61.2333 47.0655 61.1V60.75L47.0755 60.25H46.9855L47.0705 60.175C47.0705 60.375 47.0038 60.5333 46.8705 60.65C46.7371 60.7667 46.5588 60.825 46.3355 60.825C46.0521 60.825 45.8288 60.7333 45.6655 60.55C45.5021 60.3633 45.4205 60.1133 45.4205 59.8V59.22C45.4205 58.9067 45.5021 58.6583 45.6655 58.475C45.8288 58.2917 46.0521 58.2 46.3355 58.2C46.5588 58.2 46.7371 58.2583 46.8705 58.375C47.0038 58.4917 47.0705 58.65 47.0705 58.85L46.9855 58.775H47.0705V58.25H47.5155V61.1C47.5155 61.3467 47.4388 61.5417 47.2855 61.685C47.1355 61.8283 46.9255 61.9 46.6555 61.9H45.7855ZM46.4705 60.435C46.6571 60.435 46.8038 60.3767 46.9105 60.26C47.0171 60.1433 47.0705 59.9817 47.0705 59.775V59.25C47.0705 59.0433 47.0171 58.8817 46.9105 58.765C46.8038 58.6483 46.6571 58.59 46.4705 58.59C46.2805 58.59 46.1321 58.6467 46.0255 58.76C45.9221 58.8733 45.8705 59.0367 45.8705 59.25V59.775C45.8705 59.9883 45.9221 60.1517 46.0255 60.265C46.1321 60.3783 46.2805 60.435 46.4705 60.435ZM51.4266 61V60.59H52.4166V57.725L51.4266 58.465V57.965L52.2516 57.35H52.8666V60.59H53.6766V61H51.4266ZM55.4746 61.05C55.2513 61.05 55.0563 61.0117 54.8896 60.935C54.7263 60.855 54.5996 60.7417 54.5096 60.595C54.4196 60.4483 54.3746 60.2767 54.3746 60.08C54.3746 59.8633 54.4329 59.6767 54.5496 59.52C54.6696 59.3633 54.8579 59.2233 55.1146 59.1L55.5996 58.865C55.7463 58.795 55.8596 58.7033 55.9396 58.59C56.0196 58.4767 56.0596 58.3517 56.0596 58.215C56.0596 58.055 56.0063 57.9283 55.8996 57.835C55.7963 57.7417 55.6546 57.695 55.4746 57.695C55.2946 57.695 55.1513 57.7433 55.0446 57.84C54.9413 57.9333 54.8896 58.06 54.8896 58.22C54.8896 58.3533 54.9279 58.4767 55.0046 58.59C55.0846 58.7033 55.1929 58.7933 55.3296 58.86L55.8146 59.09C56.0813 59.2133 56.2746 59.355 56.3946 59.515C56.5146 59.6717 56.5746 59.86 56.5746 60.08C56.5746 60.3767 56.4746 60.6133 56.2746 60.79C56.0779 60.9633 55.8113 61.05 55.4746 61.05ZM55.4746 60.65C55.6779 60.65 55.8379 60.5983 55.9546 60.495C56.0746 60.3883 56.1346 60.2467 56.1346 60.07C56.1346 59.9267 56.0963 59.7967 56.0196 59.68C55.9429 59.5633 55.8329 59.47 55.6896 59.4L55.2096 59.165C54.9429 59.035 54.7496 58.895 54.6296 58.745C54.5096 58.595 54.4496 58.415 54.4496 58.205C54.4496 58.0183 54.4913 57.8567 54.5746 57.72C54.6579 57.5833 54.7763 57.4783 54.9296 57.405C55.0829 57.3317 55.2646 57.295 55.4746 57.295C55.6846 57.295 55.8663 57.3317 56.0196 57.405C56.1729 57.4783 56.2913 57.5833 56.3746 57.72C56.4579 57.8567 56.4996 58.0183 56.4996 58.205C56.4996 58.415 56.4396 58.595 56.3196 58.745C56.1996 58.8917 56.0013 59.0333 55.7246 59.17L55.2446 59.405C55.1079 59.4717 55.0013 59.5633 54.9246 59.68C54.8513 59.7933 54.8146 59.92 54.8146 60.06C54.8146 60.24 54.8729 60.3833 54.9896 60.49C55.1096 60.5967 55.2713 60.65 55.4746 60.65ZM57.4327 61V60.54L58.5477 59.355C58.7377 59.1517 58.876 58.9717 58.9627 58.815C59.0493 58.655 59.0927 58.5017 59.0927 58.355C59.0927 58.1517 59.036 57.9917 58.9227 57.875C58.8127 57.7583 58.661 57.7 58.4677 57.7C58.2543 57.7 58.086 57.76 57.9627 57.88C57.8427 58 57.7827 58.165 57.7827 58.375H57.3327C57.3393 58.155 57.3893 57.965 57.4827 57.805C57.5793 57.6417 57.711 57.5167 57.8777 57.43C58.0477 57.3433 58.2443 57.3 58.4677 57.3C58.6877 57.3 58.8777 57.3433 59.0377 57.43C59.201 57.5133 59.326 57.6333 59.4127 57.79C59.4993 57.9467 59.5427 58.1333 59.5427 58.35C59.5427 58.5567 59.4877 58.7617 59.3777 58.965C59.2677 59.1683 59.0877 59.4 58.8377 59.66L57.9377 60.59H59.6027V61H57.4327ZM61.4157 61.05C61.1957 61.05 61.0024 61.0067 60.8357 60.92C60.6724 60.83 60.5457 60.7067 60.4557 60.55C60.3657 60.3933 60.3207 60.21 60.3207 60H60.7707C60.7707 60.2033 60.8274 60.3633 60.9407 60.48C61.0574 60.5933 61.2174 60.65 61.4207 60.65C61.6274 60.65 61.7874 60.59 61.9007 60.47C62.014 60.35 62.0707 60.1933 62.0707 60V59.74C62.0707 59.5333 62.014 59.3733 61.9007 59.26C61.7874 59.1467 61.6274 59.09 61.4207 59.09H61.0457V58.64L61.9507 57.76H60.4707V57.35H62.4057V57.8L61.4307 58.745V58.69C61.764 58.69 62.029 58.785 62.2257 58.975C62.4224 59.165 62.5207 59.42 62.5207 59.74V60C62.5207 60.21 62.474 60.3933 62.3807 60.55C62.2907 60.7067 62.1624 60.83 61.9957 60.92C61.829 61.0067 61.6357 61.05 61.4157 61.05ZM66.5818 61L66.1418 58.25H66.5418L66.8168 60.2C66.8268 60.2733 66.8368 60.3533 66.8468 60.44C66.8601 60.5233 66.8701 60.5933 66.8768 60.65C66.8835 60.5933 66.8935 60.5233 66.9068 60.44C66.9235 60.3533 66.9368 60.2733 66.9468 60.2L67.2518 58.25H67.6818L67.9868 60.2C67.9968 60.2733 68.0085 60.3533 68.0218 60.44C68.0385 60.5233 68.0501 60.5933 68.0568 60.65C68.0635 60.5933 68.0735 60.5233 68.0868 60.44C68.1035 60.3533 68.1168 60.2733 68.1268 60.2L68.4118 58.25H68.7918L68.3318 61H67.8368L67.5418 59.1C67.5285 59.0067 67.5135 58.9133 67.4968 58.82C67.4801 58.7267 67.4685 58.6533 67.4618 58.6C67.4551 58.6533 67.4451 58.7267 67.4318 58.82C67.4185 58.9133 67.4035 59.0067 67.3868 59.1L67.0768 61H66.5818ZM70.4648 61.04C70.2448 61.04 70.0548 60.9983 69.8948 60.915C69.7348 60.8317 69.6098 60.7117 69.5198 60.555C69.4332 60.395 69.3898 60.2067 69.3898 59.99V59.26C69.3898 59.04 69.4332 58.8517 69.5198 58.695C69.6098 58.5383 69.7348 58.4183 69.8948 58.335C70.0548 58.2517 70.2448 58.21 70.4648 58.21C70.6848 58.21 70.8748 58.2517 71.0348 58.335C71.1948 58.4183 71.3182 58.5383 71.4048 58.695C71.4948 58.8517 71.5398 59.0383 71.5398 59.255V59.99C71.5398 60.2067 71.4948 60.395 71.4048 60.555C71.3182 60.7117 71.1948 60.8317 71.0348 60.915C70.8748 60.9983 70.6848 61.04 70.4648 61.04ZM70.4648 60.64C70.6615 60.64 70.8148 60.585 70.9248 60.475C71.0348 60.365 71.0898 60.2033 71.0898 59.99V59.26C71.0898 59.0467 71.0348 58.885 70.9248 58.775C70.8148 58.665 70.6615 58.61 70.4648 58.61C70.2715 58.61 70.1182 58.665 70.0048 58.775C69.8948 58.885 69.8398 59.0467 69.8398 59.26V59.99C69.8398 60.2033 69.8948 60.365 70.0048 60.475C70.1182 60.585 70.2715 60.64 70.4648 60.64ZM72.4229 61V58.25H72.8729V58.775H72.9679L72.8729 58.88C72.8729 58.6633 72.9379 58.4967 73.0679 58.38C73.1979 58.26 73.3779 58.2 73.6079 58.2C73.8846 58.2 74.1046 58.285 74.2679 58.455C74.4312 58.625 74.5129 58.8567 74.5129 59.15V61H74.0629V59.2C74.0629 59.0033 74.0096 58.8533 73.9029 58.75C73.7996 58.6433 73.6579 58.59 73.4779 58.59C73.2912 58.59 73.1429 58.6467 73.0329 58.76C72.9262 58.8733 72.8729 59.0367 72.8729 59.25V61H72.4229ZM75.4359 61V57.35H75.8859V59.385H76.4159L77.2159 58.25H77.7309L76.8059 59.56L77.7459 61H77.2209L76.4209 59.775H75.8859V61H75.4359ZM78.849 61.9L79.254 60.83L78.234 58.25H78.734L79.374 59.95C79.3973 60.0067 79.419 60.075 79.439 60.155C79.459 60.2317 79.4757 60.2967 79.489 60.35C79.5023 60.2967 79.519 60.2317 79.539 60.155C79.559 60.075 79.579 60.0067 79.599 59.95L80.199 58.25H80.684L79.329 61.9H78.849ZM82.297 61.05C82.0237 61.05 81.802 60.9583 81.632 60.775C81.4654 60.5917 81.382 60.3433 81.382 60.03V59.225C81.382 58.9083 81.4654 58.6583 81.632 58.475C81.7987 58.2917 82.0204 58.2 82.297 58.2C82.5237 58.2 82.7054 58.2617 82.842 58.385C82.9787 58.5083 83.047 58.6733 83.047 58.88L82.957 58.775H83.057L83.047 58.15V57.35H83.497V61H83.047V60.475H82.957L83.047 60.37C83.047 60.58 82.9787 60.7467 82.842 60.87C82.7054 60.99 82.5237 61.05 82.297 61.05ZM82.447 60.66C82.6337 60.66 82.7804 60.6017 82.887 60.485C82.9937 60.3683 83.047 60.2067 83.047 60V59.25C83.047 59.0433 82.9937 58.8817 82.887 58.765C82.7804 58.6483 82.6337 58.59 82.447 58.59C82.257 58.59 82.107 58.6467 81.997 58.76C81.887 58.8733 81.832 59.0367 81.832 59.25V60C81.832 60.2133 81.887 60.3767 81.997 60.49C82.107 60.6033 82.257 60.66 82.447 60.66ZM85.4551 61.04C85.2351 61.04 85.0451 60.9983 84.8851 60.915C84.7251 60.8317 84.6001 60.7117 84.5101 60.555C84.4234 60.395 84.3801 60.2067 84.3801 59.99V59.26C84.3801 59.04 84.4234 58.8517 84.5101 58.695C84.6001 58.5383 84.7251 58.4183 84.8851 58.335C85.0451 58.2517 85.2351 58.21 85.4551 58.21C85.6751 58.21 85.8651 58.2517 86.0251 58.335C86.1851 58.4183 86.3084 58.5383 86.3951 58.695C86.4851 58.8517 86.5301 59.0383 86.5301 59.255V59.99C86.5301 60.2067 86.4851 60.395 86.3951 60.555C86.3084 60.7117 86.1851 60.8317 86.0251 60.915C85.8651 60.9983 85.6751 61.04 85.4551 61.04ZM85.4551 60.64C85.6517 60.64 85.8051 60.585 85.9151 60.475C86.0251 60.365 86.0801 60.2033 86.0801 59.99V59.26C86.0801 59.0467 86.0251 58.885 85.9151 58.775C85.8051 58.665 85.6517 58.61 85.4551 58.61C85.2617 58.61 85.1084 58.665 84.9951 58.775C84.8851 58.885 84.8301 59.0467 84.8301 59.26V59.99C84.8301 60.2033 84.8851 60.365 84.9951 60.475C85.1084 60.585 85.2617 60.64 85.4551 60.64ZM87.4131 61V58.25H87.8631V58.775H87.9581L87.8631 58.88C87.8631 58.6633 87.9281 58.4967 88.0581 58.38C88.1881 58.26 88.3681 58.2 88.5981 58.2C88.8748 58.2 89.0948 58.285 89.2581 58.455C89.4215 58.625 89.5031 58.8567 89.5031 59.15V61H89.0531V59.2C89.0531 59.0033 88.9998 58.8533 88.8931 58.75C88.7898 58.6433 88.6481 58.59 88.4681 58.59C88.2815 58.59 88.1331 58.6467 88.0231 58.76C87.9165 58.8733 87.8631 59.0367 87.8631 59.25V61H87.4131ZM90.4262 61V57.35H90.8762V59.385H91.4062L92.2062 58.25H92.7212L91.7962 59.56L92.7362 61H92.2112L91.4112 59.775H90.8762V61H90.4262ZM94.4492 61.05C94.2326 61.05 94.0426 61.0067 93.8792 60.92C93.7192 60.8333 93.5942 60.7117 93.5042 60.555C93.4176 60.395 93.3742 60.21 93.3742 60V59.25C93.3742 59.0367 93.4176 58.8517 93.5042 58.695C93.5942 58.5383 93.7192 58.4167 93.8792 58.33C94.0426 58.2433 94.2326 58.2 94.4492 58.2C94.6659 58.2 94.8542 58.2433 95.0142 58.33C95.1776 58.4167 95.3026 58.5383 95.3892 58.695C95.4792 58.8517 95.5242 59.0367 95.5242 59.25V59.735H93.8142V60C93.8142 60.2167 93.8692 60.3833 93.9792 60.5C94.0892 60.6133 94.2459 60.67 94.4492 60.67C94.6226 60.67 94.7626 60.64 94.8692 60.58C94.9759 60.5167 95.0409 60.4233 95.0642 60.3H95.5142C95.4842 60.53 95.3709 60.7133 95.1742 60.85C94.9809 60.9833 94.7392 61.05 94.4492 61.05ZM95.0842 59.435V59.25C95.0842 59.0333 95.0292 58.8667 94.9192 58.75C94.8126 58.6333 94.6559 58.575 94.4492 58.575C94.2459 58.575 94.0892 58.6333 93.9792 58.75C93.8692 58.8667 93.8142 59.0333 93.8142 59.25V59.395H95.1192L95.0842 59.435ZM96.5023 61V58.25H96.9423V58.775H97.0473L96.9023 59.1C96.9023 58.8033 96.9656 58.58 97.0923 58.43C97.2223 58.2767 97.4139 58.2 97.6673 58.2C97.9573 58.2 98.1873 58.2917 98.3573 58.475C98.5306 58.655 98.6173 58.9 98.6173 59.21V59.375H98.1673V59.25C98.1673 59.0333 98.1139 58.8683 98.0073 58.755C97.9039 58.6383 97.7556 58.58 97.5623 58.58C97.3723 58.58 97.2223 58.6383 97.1123 58.755C97.0056 58.8717 96.9523 59.0367 96.9523 59.25V61H96.5023ZM100.36 61.04C100.174 61.04 100.01 61.0117 99.8703 60.955C99.7336 60.895 99.6236 60.8117 99.5403 60.705C99.4603 60.5983 99.412 60.4717 99.3953 60.325H99.8453C99.8653 60.4217 99.9186 60.4983 100.005 60.555C100.095 60.6117 100.214 60.64 100.36 60.64H100.57C100.747 60.64 100.879 60.605 100.965 60.535C101.052 60.4617 101.095 60.365 101.095 60.245C101.095 60.1283 101.055 60.0367 100.975 59.97C100.899 59.9 100.784 59.8533 100.63 59.83L100.26 59.77C99.9903 59.7233 99.7886 59.64 99.6553 59.52C99.5253 59.3967 99.4603 59.2183 99.4603 58.985C99.4603 58.7383 99.5386 58.5483 99.6953 58.415C99.852 58.2783 100.087 58.21 100.4 58.21H100.59C100.854 58.21 101.065 58.2717 101.225 58.395C101.385 58.5183 101.482 58.685 101.515 58.895H101.065C101.045 58.8083 100.995 58.74 100.915 58.69C100.835 58.6367 100.727 58.61 100.59 58.61H100.4C100.23 58.61 100.105 58.6417 100.025 58.705C99.9486 58.7683 99.9103 58.8633 99.9103 58.99C99.9103 59.1033 99.9436 59.1867 100.01 59.24C100.077 59.2933 100.182 59.3317 100.325 59.355L100.695 59.415C100.992 59.4617 101.207 59.5483 101.34 59.675C101.477 59.8017 101.545 59.985 101.545 60.225C101.545 60.4783 101.464 60.6783 101.3 60.825C101.14 60.9683 100.897 61.04 100.57 61.04H100.36Z" fill="white"/>
<path d="M16.415 72.04C16.2283 72.04 16.065 72.0117 15.925 71.955C15.7883 71.895 15.6783 71.8117 15.595 71.705C15.515 71.5983 15.4667 71.4717 15.45 71.325H15.9C15.92 71.4217 15.9733 71.4983 16.06 71.555C16.15 71.6117 16.2683 71.64 16.415 71.64H16.625C16.8017 71.64 16.9333 71.605 17.02 71.535C17.1067 71.4617 17.15 71.365 17.15 71.245C17.15 71.1283 17.11 71.0367 17.03 70.97C16.9533 70.9 16.8383 70.8533 16.685 70.83L16.315 70.77C16.045 70.7233 15.8433 70.64 15.71 70.52C15.58 70.3967 15.515 70.2183 15.515 69.985C15.515 69.7383 15.5933 69.5483 15.75 69.415C15.9067 69.2783 16.1417 69.21 16.455 69.21H16.645C16.9083 69.21 17.12 69.2717 17.28 69.395C17.44 69.5183 17.5367 69.685 17.57 69.895H17.12C17.1 69.8083 17.05 69.74 16.97 69.69C16.89 69.6367 16.7817 69.61 16.645 69.61H16.455C16.285 69.61 16.16 69.6417 16.08 69.705C16.0033 69.7683 15.965 69.8633 15.965 69.99C15.965 70.1033 15.9983 70.1867 16.065 70.24C16.1317 70.2933 16.2367 70.3317 16.38 70.355L16.75 70.415C17.0467 70.4617 17.2617 70.5483 17.395 70.675C17.5317 70.8017 17.6 70.985 17.6 71.225C17.6 71.4783 17.5183 71.6783 17.355 71.825C17.195 71.9683 16.9517 72.04 16.625 72.04H16.415ZM18.888 72.9L19.293 71.83L18.273 69.25H18.773L19.413 70.95C19.4364 71.0067 19.458 71.075 19.478 71.155C19.498 71.2317 19.5147 71.2967 19.528 71.35C19.5414 71.2967 19.558 71.2317 19.578 71.155C19.598 71.075 19.618 71.0067 19.638 70.95L20.238 69.25H20.723L19.368 72.9H18.888ZM22.4111 72.04C22.2244 72.04 22.0611 72.0117 21.9211 71.955C21.7844 71.895 21.6744 71.8117 21.5911 71.705C21.5111 71.5983 21.4628 71.4717 21.4461 71.325H21.8961C21.9161 71.4217 21.9694 71.4983 22.0561 71.555C22.1461 71.6117 22.2644 71.64 22.4111 71.64H22.6211C22.7978 71.64 22.9294 71.605 23.0161 71.535C23.1028 71.4617 23.1461 71.365 23.1461 71.245C23.1461 71.1283 23.1061 71.0367 23.0261 70.97C22.9494 70.9 22.8344 70.8533 22.6811 70.83L22.3111 70.77C22.0411 70.7233 21.8394 70.64 21.7061 70.52C21.5761 70.3967 21.5111 70.2183 21.5111 69.985C21.5111 69.7383 21.5894 69.5483 21.7461 69.415C21.9028 69.2783 22.1378 69.21 22.4511 69.21H22.6411C22.9044 69.21 23.1161 69.2717 23.2761 69.395C23.4361 69.5183 23.5328 69.685 23.5661 69.895H23.1161C23.0961 69.8083 23.0461 69.74 22.9661 69.69C22.8861 69.6367 22.7778 69.61 22.6411 69.61H22.4511C22.2811 69.61 22.1561 69.6417 22.0761 69.705C21.9994 69.7683 21.9611 69.8633 21.9611 69.99C21.9611 70.1033 21.9944 70.1867 22.0611 70.24C22.1278 70.2933 22.2328 70.3317 22.3761 70.355L22.7461 70.415C23.0428 70.4617 23.2578 70.5483 23.3911 70.675C23.5278 70.8017 23.5961 70.985 23.5961 71.225C23.5961 71.4783 23.5144 71.6783 23.3511 71.825C23.1911 71.9683 22.9478 72.04 22.6211 72.04H22.4111ZM25.7941 72C25.5575 72 25.3725 71.9367 25.2391 71.81C25.1091 71.6833 25.0441 71.505 25.0441 71.275V69.66H24.2691V69.25H25.0441V68.475H25.4941V69.25H26.5941V69.66H25.4941V71.275C25.4941 71.485 25.5941 71.59 25.7941 71.59H26.5441V72H25.7941ZM28.4922 72.05C28.2755 72.05 28.0855 72.0067 27.9222 71.92C27.7622 71.8333 27.6372 71.7117 27.5472 71.555C27.4605 71.395 27.4172 71.21 27.4172 71V70.25C27.4172 70.0367 27.4605 69.8517 27.5472 69.695C27.6372 69.5383 27.7622 69.4167 27.9222 69.33C28.0855 69.2433 28.2755 69.2 28.4922 69.2C28.7089 69.2 28.8972 69.2433 29.0572 69.33C29.2205 69.4167 29.3455 69.5383 29.4322 69.695C29.5222 69.8517 29.5672 70.0367 29.5672 70.25V70.735H27.8572V71C27.8572 71.2167 27.9122 71.3833 28.0222 71.5C28.1322 71.6133 28.2889 71.67 28.4922 71.67C28.6655 71.67 28.8055 71.64 28.9122 71.58C29.0189 71.5167 29.0839 71.4233 29.1072 71.3H29.5572C29.5272 71.53 29.4139 71.7133 29.2172 71.85C29.0239 71.9833 28.7822 72.05 28.4922 72.05ZM29.1272 70.435V70.25C29.1272 70.0333 29.0722 69.8667 28.9622 69.75C28.8555 69.6333 28.6989 69.575 28.4922 69.575C28.2889 69.575 28.1322 69.6333 28.0222 69.75C27.9122 69.8667 27.8572 70.0333 27.8572 70.25V70.395H29.1622L29.1272 70.435ZM30.3202 72V69.25H30.7152V69.58H30.8052L30.7352 69.7C30.7352 69.5467 30.7752 69.425 30.8552 69.335C30.9386 69.245 31.0502 69.2 31.1902 69.2C31.3436 69.2 31.4619 69.2567 31.5452 69.37C31.6286 69.4833 31.6702 69.6433 31.6702 69.85L31.5352 69.58H31.7452L31.6502 69.7C31.6502 69.5467 31.6919 69.425 31.7752 69.335C31.8619 69.245 31.9752 69.2 32.1152 69.2C32.2886 69.2 32.4219 69.265 32.5152 69.395C32.6119 69.525 32.6602 69.6967 32.6602 69.91V72H32.2452V69.905C32.2452 69.7917 32.2202 69.7033 32.1702 69.64C32.1236 69.5767 32.0536 69.545 31.9602 69.545C31.8702 69.545 31.7986 69.5767 31.7452 69.64C31.6952 69.7 31.6702 69.7867 31.6702 69.9V72H31.3102V69.905C31.3102 69.7883 31.2836 69.7 31.2302 69.64C31.1802 69.5767 31.1086 69.545 31.0152 69.545C30.9219 69.545 30.8519 69.5767 30.8052 69.64C30.7586 69.7 30.7352 69.7867 30.7352 69.9V72H30.3202ZM34.5083 72.05C34.2883 72.05 34.0949 72.0083 33.9283 71.925C33.7649 71.8417 33.6383 71.7217 33.5483 71.565C33.4583 71.405 33.4133 71.2167 33.4133 71V70.25C33.4133 70.03 33.4583 69.8417 33.5483 69.685C33.6383 69.5283 33.7649 69.4083 33.9283 69.325C34.0949 69.2417 34.2883 69.2 34.5083 69.2C34.8249 69.2 35.0799 69.285 35.2733 69.455C35.4666 69.625 35.5683 69.8567 35.5783 70.15H35.1283C35.1183 69.9733 35.0583 69.8383 34.9483 69.745C34.8416 69.6483 34.6949 69.6 34.5083 69.6C34.3116 69.6 34.1549 69.6567 34.0383 69.77C33.9216 69.88 33.8633 70.0383 33.8633 70.245V71C33.8633 71.2067 33.9216 71.3667 34.0383 71.48C34.1549 71.5933 34.3116 71.65 34.5083 71.65C34.6949 71.65 34.8416 71.6017 34.9483 71.505C35.0583 71.4083 35.1183 71.2733 35.1283 71.1H35.5783C35.5683 71.3933 35.4666 71.625 35.2733 71.795C35.0799 71.965 34.8249 72.05 34.5083 72.05ZM37.7863 72C37.5497 72 37.3647 71.9367 37.2313 71.81C37.1013 71.6833 37.0363 71.505 37.0363 71.275V69.66H36.2613V69.25H37.0363V68.475H37.4863V69.25H38.5863V69.66H37.4863V71.275C37.4863 71.485 37.5863 71.59 37.7863 71.59H38.5363V72H37.7863ZM40.8594 72C40.6994 72 40.5594 71.9683 40.4394 71.905C40.3194 71.8417 40.226 71.7517 40.1594 71.635C40.0927 71.5183 40.0594 71.3817 40.0594 71.225V68.76H39.1344V68.35H40.5094V71.225C40.5094 71.3383 40.541 71.4283 40.6044 71.495C40.6677 71.5583 40.7527 71.59 40.8594 71.59H41.7344V72H40.8594ZM46.3955 72.04C46.2088 72.04 46.0455 72.0117 45.9055 71.955C45.7688 71.895 45.6588 71.8117 45.5755 71.705C45.4955 71.5983 45.4471 71.4717 45.4305 71.325H45.8805C45.9005 71.4217 45.9538 71.4983 46.0405 71.555C46.1305 71.6117 46.2488 71.64 46.3955 71.64H46.6055C46.7821 71.64 46.9138 71.605 47.0005 71.535C47.0871 71.4617 47.1305 71.365 47.1305 71.245C47.1305 71.1283 47.0905 71.0367 47.0105 70.97C46.9338 70.9 46.8188 70.8533 46.6655 70.83L46.2955 70.77C46.0255 70.7233 45.8238 70.64 45.6905 70.52C45.5605 70.3967 45.4955 70.2183 45.4955 69.985C45.4955 69.7383 45.5738 69.5483 45.7305 69.415C45.8871 69.2783 46.1221 69.21 46.4355 69.21H46.6255C46.8888 69.21 47.1005 69.2717 47.2605 69.395C47.4205 69.5183 47.5171 69.685 47.5505 69.895H47.1005C47.0805 69.8083 47.0305 69.74 46.9505 69.69C46.8705 69.6367 46.7621 69.61 46.6255 69.61H46.4355C46.2655 69.61 46.1405 69.6417 46.0605 69.705C45.9838 69.7683 45.9455 69.8633 45.9455 69.99C45.9455 70.1033 45.9788 70.1867 46.0455 70.24C46.1121 70.2933 46.2171 70.3317 46.3605 70.355L46.7305 70.415C47.0271 70.4617 47.2421 70.5483 47.3755 70.675C47.5121 70.8017 47.5805 70.985 47.5805 71.225C47.5805 71.4783 47.4988 71.6783 47.3355 71.825C47.1755 71.9683 46.9321 72.04 46.6055 72.04H46.3955ZM49.7785 72C49.5418 72 49.3568 71.9367 49.2235 71.81C49.0935 71.6833 49.0285 71.505 49.0285 71.275V69.66H48.2535V69.25H49.0285V68.475H49.4785V69.25H50.5785V69.66H49.4785V71.275C49.4785 71.485 49.5785 71.59 49.7785 71.59H50.5285V72H49.7785ZM52.4766 72.04C52.2566 72.04 52.0666 71.9983 51.9066 71.915C51.7466 71.8317 51.6216 71.7117 51.5316 71.555C51.4449 71.395 51.4016 71.2067 51.4016 70.99V70.26C51.4016 70.04 51.4449 69.8517 51.5316 69.695C51.6216 69.5383 51.7466 69.4183 51.9066 69.335C52.0666 69.2517 52.2566 69.21 52.4766 69.21C52.6966 69.21 52.8866 69.2517 53.0466 69.335C53.2066 69.4183 53.3299 69.5383 53.4166 69.695C53.5066 69.8517 53.5516 70.0383 53.5516 70.255V70.99C53.5516 71.2067 53.5066 71.395 53.4166 71.555C53.3299 71.7117 53.2066 71.8317 53.0466 71.915C52.8866 71.9983 52.6966 72.04 52.4766 72.04ZM52.4766 71.64C52.6732 71.64 52.8266 71.585 52.9366 71.475C53.0466 71.365 53.1016 71.2033 53.1016 70.99V70.26C53.1016 70.0467 53.0466 69.885 52.9366 69.775C52.8266 69.665 52.6732 69.61 52.4766 69.61C52.2832 69.61 52.1299 69.665 52.0166 69.775C51.9066 69.885 51.8516 70.0467 51.8516 70.26V70.99C51.8516 71.2033 51.9066 71.365 52.0166 71.475C52.1299 71.585 52.2832 71.64 52.4766 71.64ZM54.4346 72.9V69.25H54.8846V69.775H54.9746L54.8846 69.88C54.8846 69.67 54.9529 69.505 55.0896 69.385C55.2296 69.2617 55.4129 69.2 55.6396 69.2C55.9163 69.2 56.1363 69.2917 56.2996 69.475C56.4663 69.655 56.5496 69.9033 56.5496 70.22V71.025C56.5496 71.235 56.5113 71.4167 56.4346 71.57C56.3613 71.7233 56.2563 71.8417 56.1196 71.925C55.9863 72.0083 55.8263 72.05 55.6396 72.05C55.4163 72.05 55.2346 71.9883 55.0946 71.865C54.9546 71.7417 54.8846 71.5767 54.8846 71.37L54.9746 71.475H54.8746L54.8846 72.1V72.9H54.4346ZM55.4896 71.66C55.6796 71.66 55.8279 71.6033 55.9346 71.49C56.0446 71.3767 56.0996 71.2133 56.0996 71V70.25C56.0996 70.0367 56.0446 69.8733 55.9346 69.76C55.8279 69.6467 55.6796 69.59 55.4896 69.59C55.3063 69.59 55.1596 69.6483 55.0496 69.765C54.9396 69.8817 54.8846 70.0433 54.8846 70.25V71C54.8846 71.2067 54.9396 71.3683 55.0496 71.485C55.1596 71.6017 55.3063 71.66 55.4896 71.66ZM61.4657 72.05C61.149 72.05 60.8957 71.9567 60.7057 71.77C60.5157 71.58 60.4207 71.3233 60.4207 71V69.25H60.8707V71C60.8707 71.2067 60.924 71.3683 61.0307 71.485C61.1374 71.5983 61.2824 71.655 61.4657 71.655C61.6524 71.655 61.799 71.5983 61.9057 71.485C62.0157 71.3683 62.0707 71.2067 62.0707 71V69.25H62.5207V71C62.5207 71.3233 62.424 71.58 62.2307 71.77C62.0374 71.9567 61.7824 72.05 61.4657 72.05ZM64.0688 72V69.935H63.2688V69.525H64.0688V69.05C64.0688 68.8333 64.1371 68.6633 64.2738 68.54C64.4104 68.4133 64.5988 68.35 64.8388 68.35H65.6438V68.76H64.8388C64.7354 68.76 64.6554 68.785 64.5988 68.835C64.5454 68.8817 64.5188 68.9533 64.5188 69.05V69.525H65.6438V69.935H64.5188V72H64.0688ZM66.5818 72L66.1418 69.25H66.5418L66.8168 71.2C66.8268 71.2733 66.8368 71.3533 66.8468 71.44C66.8601 71.5233 66.8701 71.5933 66.8768 71.65C66.8835 71.5933 66.8935 71.5233 66.9068 71.44C66.9235 71.3533 66.9368 71.2733 66.9468 71.2L67.2518 69.25H67.6818L67.9868 71.2C67.9968 71.2733 68.0085 71.3533 68.0218 71.44C68.0385 71.5233 68.0501 71.5933 68.0568 71.65C68.0635 71.5933 68.0735 71.5233 68.0868 71.44C68.1035 71.3533 68.1168 71.2733 68.1268 71.2L68.4118 69.25H68.7918L68.3318 72H67.8368L67.5418 70.1C67.5285 70.0067 67.5135 69.9133 67.4968 69.82C67.4801 69.7267 67.4685 69.6533 67.4618 69.6C67.4551 69.6533 67.4451 69.7267 67.4318 69.82C67.4185 69.9133 67.4035 70.0067 67.3868 70.1L67.0768 72H66.5818Z" fill="white"/>
<path d="M16.52 83.05C16.3 83.05 16.1067 83.0083 15.94 82.925C15.7767 82.8417 15.65 82.7217 15.56 82.565C15.47 82.405 15.425 82.2167 15.425 82V81.25C15.425 81.03 15.47 80.8417 15.56 80.685C15.65 80.5283 15.7767 80.4083 15.94 80.325C16.1067 80.2417 16.3 80.2 16.52 80.2C16.8367 80.2 17.0917 80.285 17.285 80.455C17.4783 80.625 17.58 80.8567 17.59 81.15H17.14C17.13 80.9733 17.07 80.8383 16.96 80.745C16.8533 80.6483 16.7067 80.6 16.52 80.6C16.3233 80.6 16.1667 80.6567 16.05 80.77C15.9333 80.88 15.875 81.0383 15.875 81.245V82C15.875 82.2067 15.9333 82.3667 16.05 82.48C16.1667 82.5933 16.3233 82.65 16.52 82.65C16.7067 82.65 16.8533 82.6017 16.96 82.505C17.07 82.4083 17.13 82.2733 17.14 82.1H17.59C17.58 82.3933 17.4783 82.625 17.285 82.795C17.0917 82.965 16.8367 83.05 16.52 83.05ZM18.458 83V79.35H18.908V80.25V80.775H19.003L18.908 80.88C18.908 80.6633 18.973 80.4967 19.103 80.38C19.233 80.26 19.413 80.2 19.643 80.2C19.9197 80.2 20.1397 80.285 20.303 80.455C20.4664 80.625 20.548 80.8567 20.548 81.15V83H20.098V81.2C20.098 81.0033 20.0447 80.8517 19.938 80.745C19.8347 80.635 19.693 80.58 19.513 80.58C19.3264 80.58 19.178 80.6383 19.068 80.755C18.9614 80.8717 18.908 81.0367 18.908 81.25V83H18.458ZM21.3261 83V80.25H21.7211V80.58H21.8111L21.7411 80.7C21.7411 80.5467 21.7811 80.425 21.8611 80.335C21.9444 80.245 22.0561 80.2 22.1961 80.2C22.3494 80.2 22.4678 80.2567 22.5511 80.37C22.6344 80.4833 22.6761 80.6433 22.6761 80.85L22.5411 80.58H22.7511L22.6561 80.7C22.6561 80.5467 22.6978 80.425 22.7811 80.335C22.8678 80.245 22.9811 80.2 23.1211 80.2C23.2944 80.2 23.4278 80.265 23.5211 80.395C23.6178 80.525 23.6661 80.6967 23.6661 80.91V83H23.2511V80.905C23.2511 80.7917 23.2261 80.7033 23.1761 80.64C23.1294 80.5767 23.0594 80.545 22.9661 80.545C22.8761 80.545 22.8044 80.5767 22.7511 80.64C22.7011 80.7 22.6761 80.7867 22.6761 80.9V83H22.3161V80.905C22.3161 80.7883 22.2894 80.7 22.2361 80.64C22.1861 80.5767 22.1144 80.545 22.0211 80.545C21.9278 80.545 21.8578 80.5767 21.8111 80.64C21.7644 80.7 21.7411 80.7867 21.7411 80.9V83H21.3261ZM25.4941 83.04C25.2741 83.04 25.0841 82.9983 24.9241 82.915C24.7641 82.8317 24.6391 82.7117 24.5491 82.555C24.4625 82.395 24.4191 82.2067 24.4191 81.99V81.26C24.4191 81.04 24.4625 80.8517 24.5491 80.695C24.6391 80.5383 24.7641 80.4183 24.9241 80.335C25.0841 80.2517 25.2741 80.21 25.4941 80.21C25.7141 80.21 25.9041 80.2517 26.0641 80.335C26.2241 80.4183 26.3475 80.5383 26.4341 80.695C26.5241 80.8517 26.5691 81.0383 26.5691 81.255V81.99C26.5691 82.2067 26.5241 82.395 26.4341 82.555C26.3475 82.7117 26.2241 82.8317 26.0641 82.915C25.9041 82.9983 25.7141 83.04 25.4941 83.04ZM25.4941 82.64C25.6908 82.64 25.8441 82.585 25.9541 82.475C26.0641 82.365 26.1191 82.2033 26.1191 81.99V81.26C26.1191 81.0467 26.0641 80.885 25.9541 80.775C25.8441 80.665 25.6908 80.61 25.4941 80.61C25.3008 80.61 25.1475 80.665 25.0341 80.775C24.9241 80.885 24.8691 81.0467 24.8691 81.26V81.99C24.8691 82.2033 24.9241 82.365 25.0341 82.475C25.1475 82.585 25.3008 82.64 25.4941 82.64ZM28.3322 83.05C28.0589 83.05 27.8372 82.9583 27.6672 82.775C27.5005 82.5917 27.4172 82.3433 27.4172 82.03V81.225C27.4172 80.9083 27.5005 80.6583 27.6672 80.475C27.8339 80.2917 28.0555 80.2 28.3322 80.2C28.5589 80.2 28.7405 80.2617 28.8772 80.385C29.0139 80.5083 29.0822 80.6733 29.0822 80.88L28.9922 80.775H29.0922L29.0822 80.15V79.35H29.5322V83H29.0822V82.475H28.9922L29.0822 82.37C29.0822 82.58 29.0139 82.7467 28.8772 82.87C28.7405 82.99 28.5589 83.05 28.3322 83.05ZM28.4822 82.66C28.6689 82.66 28.8155 82.6017 28.9222 82.485C29.0289 82.3683 29.0822 82.2067 29.0822 82V81.25C29.0822 81.0433 29.0289 80.8817 28.9222 80.765C28.8155 80.6483 28.6689 80.59 28.4822 80.59C28.2922 80.59 28.1422 80.6467 28.0322 80.76C27.9222 80.8733 27.8672 81.0367 27.8672 81.25V82C27.8672 82.2133 27.9222 82.3767 28.0322 82.49C28.1422 82.6033 28.2922 82.66 28.4822 82.66ZM33.9133 83L35.2183 79.76H33.8383V80.3H33.3883V79.35H35.6633V79.79L34.3983 83H33.9133ZM36.9113 83L38.2163 79.76H36.8363V80.3H36.3863V79.35H38.6613V79.79L37.3963 83H36.9113ZM39.9094 83L41.2144 79.76H39.8344V80.3H39.3844V79.35H41.6594V79.79L40.3944 83H39.9094ZM45.3555 83.55L47.1305 78.85H47.6055L45.8305 83.55H45.3555ZM49.4785 83.05C49.2618 83.05 49.0718 83.0067 48.9085 82.92C48.7485 82.8333 48.6235 82.7117 48.5335 82.555C48.4468 82.395 48.4035 82.21 48.4035 82V81.25C48.4035 81.0367 48.4468 80.8517 48.5335 80.695C48.6235 80.5383 48.7485 80.4167 48.9085 80.33C49.0718 80.2433 49.2618 80.2 49.4785 80.2C49.6952 80.2 49.8835 80.2433 50.0435 80.33C50.2068 80.4167 50.3318 80.5383 50.4185 80.695C50.5085 80.8517 50.5535 81.0367 50.5535 81.25V81.735H48.8435V82C48.8435 82.2167 48.8985 82.3833 49.0085 82.5C49.1185 82.6133 49.2752 82.67 49.4785 82.67C49.6518 82.67 49.7918 82.64 49.8985 82.58C50.0052 82.5167 50.0702 82.4233 50.0935 82.3H50.5435C50.5135 82.53 50.4002 82.7133 50.2035 82.85C50.0102 82.9833 49.7685 83.05 49.4785 83.05ZM50.1135 81.435V81.25C50.1135 81.0333 50.0585 80.8667 49.9485 80.75C49.8418 80.6333 49.6852 80.575 49.4785 80.575C49.2752 80.575 49.1185 80.6333 49.0085 80.75C48.8985 80.8667 48.8435 81.0333 48.8435 81.25V81.395H50.1485L50.1135 81.435ZM52.7766 83C52.5399 83 52.3549 82.9367 52.2216 82.81C52.0916 82.6833 52.0266 82.505 52.0266 82.275V80.66H51.2516V80.25H52.0266V79.475H52.4766V80.25H53.5766V80.66H52.4766V82.275C52.4766 82.485 52.5766 82.59 52.7766 82.59H53.5266V83H52.7766ZM55.4946 83.05C55.2746 83.05 55.0813 83.0083 54.9146 82.925C54.7513 82.8417 54.6246 82.7217 54.5346 82.565C54.4446 82.405 54.3996 82.2167 54.3996 82V81.25C54.3996 81.03 54.4446 80.8417 54.5346 80.685C54.6246 80.5283 54.7513 80.4083 54.9146 80.325C55.0813 80.2417 55.2746 80.2 55.4946 80.2C55.8113 80.2 56.0663 80.285 56.2596 80.455C56.4529 80.625 56.5546 80.8567 56.5646 81.15H56.1146C56.1046 80.9733 56.0446 80.8383 55.9346 80.745C55.8279 80.6483 55.6813 80.6 55.4946 80.6C55.2979 80.6 55.1413 80.6567 55.0246 80.77C54.9079 80.88 54.8496 81.0383 54.8496 81.245V82C54.8496 82.2067 54.9079 82.3667 55.0246 82.48C55.1413 82.5933 55.2979 82.65 55.4946 82.65C55.6813 82.65 55.8279 82.6017 55.9346 82.505C56.0446 82.4083 56.1046 82.2733 56.1146 82.1H56.5646C56.5546 82.3933 56.4529 82.625 56.2596 82.795C56.0663 82.965 55.8113 83.05 55.4946 83.05ZM57.3477 83.55L59.1227 78.85H59.5977L57.8227 83.55H57.3477ZM60.4307 83.9V80.25H60.8807V80.775H60.9707L60.8807 80.88C60.8807 80.67 60.949 80.505 61.0857 80.385C61.2257 80.2617 61.409 80.2 61.6357 80.2C61.9124 80.2 62.1324 80.2917 62.2957 80.475C62.4624 80.655 62.5457 80.9033 62.5457 81.22V82.025C62.5457 82.235 62.5074 82.4167 62.4307 82.57C62.3574 82.7233 62.2524 82.8417 62.1157 82.925C61.9824 83.0083 61.8224 83.05 61.6357 83.05C61.4124 83.05 61.2307 82.9883 61.0907 82.865C60.9507 82.7417 60.8807 82.5767 60.8807 82.37L60.9707 82.475H60.8707L60.8807 83.1V83.9H60.4307ZM61.4857 82.66C61.6757 82.66 61.824 82.6033 61.9307 82.49C62.0407 82.3767 62.0957 82.2133 62.0957 82V81.25C62.0957 81.0367 62.0407 80.8733 61.9307 80.76C61.824 80.6467 61.6757 80.59 61.4857 80.59C61.3024 80.59 61.1557 80.6483 61.0457 80.765C60.9357 80.8817 60.8807 81.0433 60.8807 81.25V82C60.8807 82.2067 60.9357 82.3683 61.0457 82.485C61.1557 82.6017 61.3024 82.66 61.4857 82.66ZM64.2288 83.05C63.9388 83.05 63.7104 82.9767 63.5438 82.83C63.3771 82.68 63.2938 82.4783 63.2938 82.225C63.2938 81.9683 63.3771 81.7667 63.5438 81.62C63.7104 81.4733 63.9354 81.4 64.2188 81.4H65.0688V81.125C65.0688 80.955 65.0171 80.825 64.9138 80.735C64.8138 80.6417 64.6704 80.595 64.4838 80.595C64.3204 80.595 64.1838 80.63 64.0738 80.7C63.9638 80.7667 63.9004 80.8583 63.8838 80.975H63.4338C63.4638 80.7383 63.5754 80.55 63.7688 80.41C63.9621 80.27 64.2038 80.2 64.4938 80.2C64.8104 80.2 65.0604 80.2817 65.2438 80.445C65.4271 80.6083 65.5188 80.83 65.5188 81.11V83H65.0788V82.475H65.0038L65.0788 82.4C65.0788 82.6 65.0004 82.7583 64.8438 82.875C64.6904 82.9917 64.4854 83.05 64.2288 83.05ZM64.3388 82.695C64.5521 82.695 64.7271 82.6417 64.8638 82.535C65.0004 82.4283 65.0688 82.2917 65.0688 82.125V81.735H64.2288C64.0788 81.735 63.9604 81.7767 63.8738 81.86C63.7871 81.9433 63.7438 82.0567 63.7438 82.2C63.7438 82.3533 63.7954 82.475 63.8988 82.565C64.0054 82.6517 64.1521 82.695 64.3388 82.695ZM67.3818 83.04C67.1951 83.04 67.0318 83.0117 66.8918 82.955C66.7551 82.895 66.6451 82.8117 66.5618 82.705C66.4818 82.5983 66.4335 82.4717 66.4168 82.325H66.8668C66.8868 82.4217 66.9401 82.4983 67.0268 82.555C67.1168 82.6117 67.2351 82.64 67.3818 82.64H67.5918C67.7685 82.64 67.9001 82.605 67.9868 82.535C68.0735 82.4617 68.1168 82.365 68.1168 82.245C68.1168 82.1283 68.0768 82.0367 67.9968 81.97C67.9201 81.9 67.8051 81.8533 67.6518 81.83L67.2818 81.77C67.0118 81.7233 66.8101 81.64 66.6768 81.52C66.5468 81.3967 66.4818 81.2183 66.4818 80.985C66.4818 80.7383 66.5601 80.5483 66.7168 80.415C66.8735 80.2783 67.1085 80.21 67.4218 80.21H67.6118C67.8751 80.21 68.0868 80.2717 68.2468 80.395C68.4068 80.5183 68.5035 80.685 68.5368 80.895H68.0868C68.0668 80.8083 68.0168 80.74 67.9368 80.69C67.8568 80.6367 67.7485 80.61 67.6118 80.61H67.4218C67.2518 80.61 67.1268 80.6417 67.0468 80.705C66.9701 80.7683 66.9318 80.8633 66.9318 80.99C66.9318 81.1033 66.9651 81.1867 67.0318 81.24C67.0985 81.2933 67.2035 81.3317 67.3468 81.355L67.7168 81.415C68.0135 81.4617 68.2285 81.5483 68.3618 81.675C68.4985 81.8017 68.5668 81.985 68.5668 82.225C68.5668 82.4783 68.4851 82.6783 68.3218 82.825C68.1618 82.9683 67.9185 83.04 67.5918 83.04H67.3818ZM70.3798 83.04C70.1932 83.04 70.0298 83.0117 69.8898 82.955C69.7532 82.895 69.6432 82.8117 69.5598 82.705C69.4798 82.5983 69.4315 82.4717 69.4148 82.325H69.8648C69.8848 82.4217 69.9382 82.4983 70.0248 82.555C70.1148 82.6117 70.2332 82.64 70.3798 82.64H70.5898C70.7665 82.64 70.8982 82.605 70.9848 82.535C71.0715 82.4617 71.1148 82.365 71.1148 82.245C71.1148 82.1283 71.0748 82.0367 70.9948 81.97C70.9182 81.9 70.8032 81.8533 70.6498 81.83L70.2798 81.77C70.0098 81.7233 69.8082 81.64 69.6748 81.52C69.5448 81.3967 69.4798 81.2183 69.4798 80.985C69.4798 80.7383 69.5582 80.5483 69.7148 80.415C69.8715 80.2783 70.1065 80.21 70.4198 80.21H70.6098C70.8732 80.21 71.0848 80.2717 71.2448 80.395C71.4048 80.5183 71.5015 80.685 71.5348 80.895H71.0848C71.0648 80.8083 71.0148 80.74 70.9348 80.69C70.8548 80.6367 70.7465 80.61 70.6098 80.61H70.4198C70.2498 80.61 70.1248 80.6417 70.0448 80.705C69.9682 80.7683 69.9298 80.8633 69.9298 80.99C69.9298 81.1033 69.9632 81.1867 70.0298 81.24C70.0965 81.2933 70.2015 81.3317 70.3448 81.355L70.7148 81.415C71.0115 81.4617 71.2265 81.5483 71.3598 81.675C71.4965 81.8017 71.5648 81.985 71.5648 82.225C71.5648 82.4783 71.4832 82.6783 71.3198 82.825C71.1598 82.9683 70.9165 83.04 70.5898 83.04H70.3798ZM72.5779 83L72.1379 80.25H72.5379L72.8129 82.2C72.8229 82.2733 72.8329 82.3533 72.8429 82.44C72.8562 82.5233 72.8662 82.5933 72.8729 82.65C72.8796 82.5933 72.8896 82.5233 72.9029 82.44C72.9196 82.3533 72.9329 82.2733 72.9429 82.2L73.2479 80.25H73.6779L73.9829 82.2C73.9929 82.2733 74.0046 82.3533 74.0179 82.44C74.0346 82.5233 74.0462 82.5933 74.0529 82.65C74.0596 82.5933 74.0696 82.5233 74.0829 82.44C74.0996 82.3533 74.1129 82.2733 74.1229 82.2L74.4079 80.25H74.7879L74.3279 83H73.8329L73.5379 81.1C73.5246 81.0067 73.5096 80.9133 73.4929 80.82C73.4762 80.7267 73.4646 80.6533 73.4579 80.6C73.4512 80.6533 73.4412 80.7267 73.4279 80.82C73.4146 80.9133 73.3996 81.0067 73.3829 81.1L73.0729 83H72.5779ZM76.3009 83.05C76.0276 83.05 75.8059 82.9583 75.6359 82.775C75.4693 82.5917 75.3859 82.3433 75.3859 82.03V81.225C75.3859 80.9083 75.4693 80.6583 75.6359 80.475C75.8026 80.2917 76.0243 80.2 76.3009 80.2C76.5276 80.2 76.7093 80.2617 76.8459 80.385C76.9826 80.5083 77.0509 80.6733 77.0509 80.88L76.9609 80.775H77.0609L77.0509 80.15V79.35H77.5009V83H77.0509V82.475H76.9609L77.0509 82.37C77.0509 82.58 76.9826 82.7467 76.8459 82.87C76.7093 82.99 76.5276 83.05 76.3009 83.05ZM76.4509 82.66C76.6376 82.66 76.7843 82.6017 76.8909 82.485C76.9976 82.3683 77.0509 82.2067 77.0509 82V81.25C77.0509 81.0433 76.9976 80.8817 76.8909 80.765C76.7843 80.6483 76.6376 80.59 76.4509 80.59C76.2609 80.59 76.1109 80.6467 76.0009 80.76C75.8909 80.8733 75.8359 81.0367 75.8359 81.25V82C75.8359 82.2133 75.8909 82.3767 76.0009 82.49C76.1109 82.6033 76.2609 82.66 76.4509 82.66Z" fill="white"/>
<path d="M16.52 94.05C16.3 94.05 16.1067 94.0083 15.94 93.925C15.7767 93.8417 15.65 93.7217 15.56 93.565C15.47 93.405 15.425 93.2167 15.425 93V92.25C15.425 92.03 15.47 91.8417 15.56 91.685C15.65 91.5283 15.7767 91.4083 15.94 91.325C16.1067 91.2417 16.3 91.2 16.52 91.2C16.8367 91.2 17.0917 91.285 17.285 91.455C17.4783 91.625 17.58 91.8567 17.59 92.15H17.14C17.13 91.9733 17.07 91.8383 16.96 91.745C16.8533 91.6483 16.7067 91.6 16.52 91.6C16.3233 91.6 16.1667 91.6567 16.05 91.77C15.9333 91.88 15.875 92.0383 15.875 92.245V93C15.875 93.2067 15.9333 93.3667 16.05 93.48C16.1667 93.5933 16.3233 93.65 16.52 93.65C16.7067 93.65 16.8533 93.6017 16.96 93.505C17.07 93.4083 17.13 93.2733 17.14 93.1H17.59C17.58 93.3933 17.4783 93.625 17.285 93.795C17.0917 93.965 16.8367 94.05 16.52 94.05ZM18.458 94V90.35H18.908V91.25V91.775H19.003L18.908 91.88C18.908 91.6633 18.973 91.4967 19.103 91.38C19.233 91.26 19.413 91.2 19.643 91.2C19.9197 91.2 20.1397 91.285 20.303 91.455C20.4664 91.625 20.548 91.8567 20.548 92.15V94H20.098V92.2C20.098 92.0033 20.0447 91.8517 19.938 91.745C19.8347 91.635 19.693 91.58 19.513 91.58C19.3264 91.58 19.178 91.6383 19.068 91.755C18.9614 91.8717 18.908 92.0367 18.908 92.25V94H18.458ZM21.3261 94V91.25H21.7211V91.58H21.8111L21.7411 91.7C21.7411 91.5467 21.7811 91.425 21.8611 91.335C21.9444 91.245 22.0561 91.2 22.1961 91.2C22.3494 91.2 22.4678 91.2567 22.5511 91.37C22.6344 91.4833 22.6761 91.6433 22.6761 91.85L22.5411 91.58H22.7511L22.6561 91.7C22.6561 91.5467 22.6978 91.425 22.7811 91.335C22.8678 91.245 22.9811 91.2 23.1211 91.2C23.2944 91.2 23.4278 91.265 23.5211 91.395C23.6178 91.525 23.6661 91.6967 23.6661 91.91V94H23.2511V91.905C23.2511 91.7917 23.2261 91.7033 23.1761 91.64C23.1294 91.5767 23.0594 91.545 22.9661 91.545C22.8761 91.545 22.8044 91.5767 22.7511 91.64C22.7011 91.7 22.6761 91.7867 22.6761 91.9V94H22.3161V91.905C22.3161 91.7883 22.2894 91.7 22.2361 91.64C22.1861 91.5767 22.1144 91.545 22.0211 91.545C21.9278 91.545 21.8578 91.5767 21.8111 91.64C21.7644 91.7 21.7411 91.7867 21.7411 91.9V94H21.3261ZM25.4941 94.04C25.2741 94.04 25.0841 93.9983 24.9241 93.915C24.7641 93.8317 24.6391 93.7117 24.5491 93.555C24.4625 93.395 24.4191 93.2067 24.4191 92.99V92.26C24.4191 92.04 24.4625 91.8517 24.5491 91.695C24.6391 91.5383 24.7641 91.4183 24.9241 91.335C25.0841 91.2517 25.2741 91.21 25.4941 91.21C25.7141 91.21 25.9041 91.2517 26.0641 91.335C26.2241 91.4183 26.3475 91.5383 26.4341 91.695C26.5241 91.8517 26.5691 92.0383 26.5691 92.255V92.99C26.5691 93.2067 26.5241 93.395 26.4341 93.555C26.3475 93.7117 26.2241 93.8317 26.0641 93.915C25.9041 93.9983 25.7141 94.04 25.4941 94.04ZM25.4941 93.64C25.6908 93.64 25.8441 93.585 25.9541 93.475C26.0641 93.365 26.1191 93.2033 26.1191 92.99V92.26C26.1191 92.0467 26.0641 91.885 25.9541 91.775C25.8441 91.665 25.6908 91.61 25.4941 91.61C25.3008 91.61 25.1475 91.665 25.0341 91.775C24.9241 91.885 24.8691 92.0467 24.8691 92.26V92.99C24.8691 93.2033 24.9241 93.365 25.0341 93.475C25.1475 93.585 25.3008 93.64 25.4941 93.64ZM28.3322 94.05C28.0589 94.05 27.8372 93.9583 27.6672 93.775C27.5005 93.5917 27.4172 93.3433 27.4172 93.03V92.225C27.4172 91.9083 27.5005 91.6583 27.6672 91.475C27.8339 91.2917 28.0555 91.2 28.3322 91.2C28.5589 91.2 28.7405 91.2617 28.8772 91.385C29.0139 91.5083 29.0822 91.6733 29.0822 91.88L28.9922 91.775H29.0922L29.0822 91.15V90.35H29.5322V94H29.0822V93.475H28.9922L29.0822 93.37C29.0822 93.58 29.0139 93.7467 28.8772 93.87C28.7405 93.99 28.5589 94.05 28.3322 94.05ZM28.4822 93.66C28.6689 93.66 28.8155 93.6017 28.9222 93.485C29.0289 93.3683 29.0822 93.2067 29.0822 93V92.25C29.0822 92.0433 29.0289 91.8817 28.9222 91.765C28.8155 91.6483 28.6689 91.59 28.4822 91.59C28.2922 91.59 28.1422 91.6467 28.0322 91.76C27.9222 91.8733 27.8672 92.0367 27.8672 92.25V93C27.8672 93.2133 27.9222 93.3767 28.0322 93.49C28.1422 93.6033 28.2922 93.66 28.4822 93.66ZM33.9133 94L35.2183 90.76H33.8383V91.3H33.3883V90.35H35.6633V90.79L34.3983 94H33.9133ZM36.9113 94L38.2163 90.76H36.8363V91.3H36.3863V90.35H38.6613V90.79L37.3963 94H36.9113ZM39.9094 94L41.2144 90.76H39.8344V91.3H39.3844V90.35H41.6594V90.79L40.3944 94H39.9094ZM45.3555 94.55L47.1305 89.85H47.6055L45.8305 94.55H45.3555ZM49.4785 94.05C49.2618 94.05 49.0718 94.0067 48.9085 93.92C48.7485 93.8333 48.6235 93.7117 48.5335 93.555C48.4468 93.395 48.4035 93.21 48.4035 93V92.25C48.4035 92.0367 48.4468 91.8517 48.5335 91.695C48.6235 91.5383 48.7485 91.4167 48.9085 91.33C49.0718 91.2433 49.2618 91.2 49.4785 91.2C49.6952 91.2 49.8835 91.2433 50.0435 91.33C50.2068 91.4167 50.3318 91.5383 50.4185 91.695C50.5085 91.8517 50.5535 92.0367 50.5535 92.25V92.735H48.8435V93C48.8435 93.2167 48.8985 93.3833 49.0085 93.5C49.1185 93.6133 49.2752 93.67 49.4785 93.67C49.6518 93.67 49.7918 93.64 49.8985 93.58C50.0052 93.5167 50.0702 93.4233 50.0935 93.3H50.5435C50.5135 93.53 50.4002 93.7133 50.2035 93.85C50.0102 93.9833 49.7685 94.05 49.4785 94.05ZM50.1135 92.435V92.25C50.1135 92.0333 50.0585 91.8667 49.9485 91.75C49.8418 91.6333 49.6852 91.575 49.4785 91.575C49.2752 91.575 49.1185 91.6333 49.0085 91.75C48.8985 91.8667 48.8435 92.0333 48.8435 92.25V92.395H50.1485L50.1135 92.435ZM52.7766 94C52.5399 94 52.3549 93.9367 52.2216 93.81C52.0916 93.6833 52.0266 93.505 52.0266 93.275V91.66H51.2516V91.25H52.0266V90.475H52.4766V91.25H53.5766V91.66H52.4766V93.275C52.4766 93.485 52.5766 93.59 52.7766 93.59H53.5266V94H52.7766ZM55.4946 94.05C55.2746 94.05 55.0813 94.0083 54.9146 93.925C54.7513 93.8417 54.6246 93.7217 54.5346 93.565C54.4446 93.405 54.3996 93.2167 54.3996 93V92.25C54.3996 92.03 54.4446 91.8417 54.5346 91.685C54.6246 91.5283 54.7513 91.4083 54.9146 91.325C55.0813 91.2417 55.2746 91.2 55.4946 91.2C55.8113 91.2 56.0663 91.285 56.2596 91.455C56.4529 91.625 56.5546 91.8567 56.5646 92.15H56.1146C56.1046 91.9733 56.0446 91.8383 55.9346 91.745C55.8279 91.6483 55.6813 91.6 55.4946 91.6C55.2979 91.6 55.1413 91.6567 55.0246 91.77C54.9079 91.88 54.8496 92.0383 54.8496 92.245V93C54.8496 93.2067 54.9079 93.3667 55.0246 93.48C55.1413 93.5933 55.2979 93.65 55.4946 93.65C55.6813 93.65 55.8279 93.6017 55.9346 93.505C56.0446 93.4083 56.1046 93.2733 56.1146 93.1H56.5646C56.5546 93.3933 56.4529 93.625 56.2596 93.795C56.0663 93.965 55.8113 94.05 55.4946 94.05ZM57.3477 94.55L59.1227 89.85H59.5977L57.8227 94.55H57.3477ZM60.7757 94.9V94.49H61.6507C61.7907 94.49 61.8924 94.4583 61.9557 94.395C62.0224 94.3317 62.0557 94.2333 62.0557 94.1V93.75L62.0657 93.25H61.9757L62.0607 93.175C62.0607 93.375 61.994 93.5333 61.8607 93.65C61.7274 93.7667 61.549 93.825 61.3257 93.825C61.0424 93.825 60.819 93.7333 60.6557 93.55C60.4924 93.3633 60.4107 93.1133 60.4107 92.8V92.22C60.4107 91.9067 60.4924 91.6583 60.6557 91.475C60.819 91.2917 61.0424 91.2 61.3257 91.2C61.549 91.2 61.7274 91.2583 61.8607 91.375C61.994 91.4917 62.0607 91.65 62.0607 91.85L61.9757 91.775H62.0607V91.25H62.5057V94.1C62.5057 94.3467 62.429 94.5417 62.2757 94.685C62.1257 94.8283 61.9157 94.9 61.6457 94.9H60.7757ZM61.4607 93.435C61.6474 93.435 61.794 93.3767 61.9007 93.26C62.0074 93.1433 62.0607 92.9817 62.0607 92.775V92.25C62.0607 92.0433 62.0074 91.8817 61.9007 91.765C61.794 91.6483 61.6474 91.59 61.4607 91.59C61.2707 91.59 61.1224 91.6467 61.0157 91.76C60.9124 91.8733 60.8607 92.0367 60.8607 92.25V92.775C60.8607 92.9883 60.9124 93.1517 61.0157 93.265C61.1224 93.3783 61.2707 93.435 61.4607 93.435ZM63.5238 94V91.25H63.9638V91.775H64.0688L63.9238 92.1C63.9238 91.8033 63.9871 91.58 64.1138 91.43C64.2438 91.2767 64.4354 91.2 64.6888 91.2C64.9788 91.2 65.2088 91.2917 65.3788 91.475C65.5521 91.655 65.6388 91.9 65.6388 92.21V92.375H65.1888V92.25C65.1888 92.0333 65.1354 91.8683 65.0288 91.755C64.9254 91.6383 64.7771 91.58 64.5838 91.58C64.3938 91.58 64.2438 91.6383 64.1338 91.755C64.0271 91.8717 63.9738 92.0367 63.9738 92.25V94H63.5238ZM67.4668 94.04C67.2468 94.04 67.0568 93.9983 66.8968 93.915C66.7368 93.8317 66.6118 93.7117 66.5218 93.555C66.4351 93.395 66.3918 93.2067 66.3918 92.99V92.26C66.3918 92.04 66.4351 91.8517 66.5218 91.695C66.6118 91.5383 66.7368 91.4183 66.8968 91.335C67.0568 91.2517 67.2468 91.21 67.4668 91.21C67.6868 91.21 67.8768 91.2517 68.0368 91.335C68.1968 91.4183 68.3201 91.5383 68.4068 91.695C68.4968 91.8517 68.5418 92.0383 68.5418 92.255V92.99C68.5418 93.2067 68.4968 93.395 68.4068 93.555C68.3201 93.7117 68.1968 93.8317 68.0368 93.915C67.8768 93.9983 67.6868 94.04 67.4668 94.04ZM67.4668 93.64C67.6635 93.64 67.8168 93.585 67.9268 93.475C68.0368 93.365 68.0918 93.2033 68.0918 92.99V92.26C68.0918 92.0467 68.0368 91.885 67.9268 91.775C67.8168 91.665 67.6635 91.61 67.4668 91.61C67.2735 91.61 67.1201 91.665 67.0068 91.775C66.8968 91.885 66.8418 92.0467 66.8418 92.26V92.99C66.8418 93.2033 66.8968 93.365 67.0068 93.475C67.1201 93.585 67.2735 93.64 67.4668 93.64ZM70.4598 94.05C70.1432 94.05 69.8898 93.9567 69.6998 93.77C69.5098 93.58 69.4148 93.3233 69.4148 93V91.25H69.8648V93C69.8648 93.2067 69.9182 93.3683 70.0248 93.485C70.1315 93.5983 70.2765 93.655 70.4598 93.655C70.6465 93.655 70.7932 93.5983 70.8998 93.485C71.0098 93.3683 71.0648 93.2067 71.0648 93V91.25H71.5148V93C71.5148 93.3233 71.4182 93.58 71.2248 93.77C71.0315 93.9567 70.7765 94.05 70.4598 94.05ZM72.4229 94.9V91.25H72.8729V91.775H72.9629L72.8729 91.88C72.8729 91.67 72.9412 91.505 73.0779 91.385C73.2179 91.2617 73.4012 91.2 73.6279 91.2C73.9046 91.2 74.1246 91.2917 74.2879 91.475C74.4546 91.655 74.5379 91.9033 74.5379 92.22V93.025C74.5379 93.235 74.4996 93.4167 74.4229 93.57C74.3496 93.7233 74.2446 93.8417 74.1079 93.925C73.9746 94.0083 73.8146 94.05 73.6279 94.05C73.4046 94.05 73.2229 93.9883 73.0829 93.865C72.9429 93.7417 72.8729 93.5767 72.8729 93.37L72.9629 93.475H72.8629L72.8729 94.1V94.9H72.4229ZM73.4779 93.66C73.6679 93.66 73.8162 93.6033 73.9229 93.49C74.0329 93.3767 74.0879 93.2133 74.0879 93V92.25C74.0879 92.0367 74.0329 91.8733 73.9229 91.76C73.8162 91.6467 73.6679 91.59 73.4779 91.59C73.2946 91.59 73.1479 91.6483 73.0379 91.765C72.9279 91.8817 72.8729 92.0433 72.8729 92.25V93C72.8729 93.2067 72.9279 93.3683 73.0379 93.485C73.1479 93.6017 73.2946 93.66 73.4779 93.66ZM76.3759 94.04C76.1893 94.04 76.0259 94.0117 75.8859 93.955C75.7493 93.895 75.6393 93.8117 75.5559 93.705C75.4759 93.5983 75.4276 93.4717 75.4109 93.325H75.8609C75.8809 93.4217 75.9343 93.4983 76.0209 93.555C76.1109 93.6117 76.2293 93.64 76.3759 93.64H76.5859C76.7626 93.64 76.8943 93.605 76.9809 93.535C77.0676 93.4617 77.1109 93.365 77.1109 93.245C77.1109 93.1283 77.0709 93.0367 76.9909 92.97C76.9143 92.9 76.7993 92.8533 76.6459 92.83L76.2759 92.77C76.0059 92.7233 75.8043 92.64 75.6709 92.52C75.5409 92.3967 75.4759 92.2183 75.4759 91.985C75.4759 91.7383 75.5543 91.5483 75.7109 91.415C75.8676 91.2783 76.1026 91.21 76.4159 91.21H76.6059C76.8693 91.21 77.0809 91.2717 77.2409 91.395C77.4009 91.5183 77.4976 91.685 77.5309 91.895H77.0809C77.0609 91.8083 77.0109 91.74 76.9309 91.69C76.8509 91.6367 76.7426 91.61 76.6059 91.61H76.4159C76.2459 91.61 76.1209 91.6417 76.0409 91.705C75.9643 91.7683 75.9259 91.8633 75.9259 91.99C75.9259 92.1033 75.9593 92.1867 76.0259 92.24C76.0926 92.2933 76.1976 92.3317 76.3409 92.355L76.7109 92.415C77.0076 92.4617 77.2226 92.5483 77.3559 92.675C77.4926 92.8017 77.5609 92.985 77.5609 93.225C77.5609 93.4783 77.4793 93.6783 77.3159 93.825C77.1559 93.9683 76.9126 94.04 76.5859 94.04H76.3759Z" fill="white"/>
<path d="M15.425 107.675V107.24L16.975 106.48C17.0383 106.45 17.0967 106.425 17.15 106.405C17.2067 106.382 17.2483 106.367 17.275 106.36C17.245 106.353 17.2017 106.34 17.145 106.32C17.0883 106.297 17.0317 106.27 16.975 106.24L15.425 105.475V105.025L17.575 106.1V106.6L15.425 107.675Z" fill="#00FFA3"/>
</svg>
