<svg width="120" height="115" viewBox="0 0 120 115" fill="none" xmlns="http://www.w3.org/2000/svg">
<g clip-path="url(#clip0_2_47)">
<path d="M76.908 88.0724C78.6129 88.0724 80 86.6853 80 84.9804V79.9706C80 78.2658 78.6129 76.8787 76.908 76.8787H43.092C41.3871 76.8787 40 78.2658 40 79.9706V84.9804C40 86.6853 41.3871 88.0724 43.092 88.0724H59.4129V89.4031H43.092C41.3871 89.4031 40 90.7902 40 92.4951V97.5049C40 99.2098 41.3871 100.597 43.092 100.597H59.4129V101.928H43.092C41.3871 101.928 40 103.315 40 105.02V110.029C40 111.734 41.3871 113.121 43.092 113.121H76.908C78.6129 113.121 80 111.734 80 110.029V105.02C80 103.315 78.6129 101.928 76.908 101.928H60.5871V100.597H76.908C78.6129 100.597 80 99.2098 80 97.5049V92.4951C80 90.7902 78.6129 89.4031 76.908 89.4031H60.5871V88.0724H76.908ZM78.8258 105.02V110.029C78.8258 111.087 77.9655 111.947 76.908 111.947H43.092C42.0345 111.947 41.1742 111.087 41.1742 110.029V105.02C41.1742 103.962 42.0345 103.102 43.092 103.102H76.908C77.9655 103.102 78.8258 103.962 78.8258 105.02ZM78.8258 92.4951V97.5049C78.8258 98.5624 77.9655 99.4227 76.908 99.4227H43.092C42.0345 99.4227 41.1742 98.5624 41.1742 97.5049V92.4951C41.1742 91.4376 42.0345 90.5773 43.092 90.5773H76.908C77.9655 90.5773 78.8258 91.4376 78.8258 92.4951ZM41.1742 84.9804V79.9706C41.1742 78.9131 42.0345 78.0528 43.092 78.0528H76.908C77.9655 78.0528 78.8258 78.9131 78.8258 79.9706V84.9804C78.8258 86.038 77.9655 86.8982 76.908 86.8982H43.092C42.0345 86.8982 41.1742 86.038 41.1742 84.9804Z" fill="black"/>
<path d="M45.5969 80.0098C44.2373 80.0098 43.1311 81.1159 43.1311 82.4755C43.1311 83.8351 44.2373 84.9413 45.5969 84.9413C46.9565 84.9413 48.0626 83.8351 48.0626 82.4755C48.0626 81.1159 46.9565 80.0098 45.5969 80.0098ZM45.5969 83.7671C44.8847 83.7671 44.3053 83.1877 44.3053 82.4755C44.3053 81.7634 44.8847 81.184 45.5969 81.184C46.309 81.184 46.8885 81.7634 46.8885 82.4755C46.8885 83.1877 46.309 83.7671 45.5969 83.7671Z" fill="black"/>
<path d="M51.2329 80.636C50.2186 80.636 49.3933 81.4612 49.3933 82.4755C49.3933 83.4899 50.2186 84.3151 51.2329 84.3151C52.2472 84.3151 53.0724 83.4899 53.0724 82.4755C53.0724 81.4612 52.2472 80.636 51.2329 80.636ZM51.2329 83.1409C50.866 83.1409 50.5675 82.8424 50.5675 82.4755C50.5675 82.1087 50.866 81.8102 51.2329 81.8102C51.5998 81.8102 51.8982 82.1087 51.8982 82.4755C51.8982 82.8424 51.5998 83.1409 51.2329 83.1409Z" fill="black"/>
<path d="M45.5969 92.5342C44.2373 92.5342 43.1311 93.6404 43.1311 95C43.1311 96.3596 44.2373 97.4658 45.5969 97.4658C46.9565 97.4658 48.0626 96.3596 48.0626 95C48.0626 93.6404 46.9565 92.5342 45.5969 92.5342ZM45.5969 96.2916C44.8847 96.2916 44.3053 95.7122 44.3053 95C44.3053 94.2878 44.8847 93.7084 45.5969 93.7084C46.309 93.7084 46.8885 94.2878 46.8885 95C46.8885 95.7122 46.309 96.2916 45.5969 96.2916Z" fill="black"/>
<path d="M51.2329 93.1605C50.2186 93.1605 49.3933 93.9857 49.3933 95C49.3933 96.0143 50.2186 96.8395 51.2329 96.8395C52.2472 96.8395 53.0724 96.0143 53.0724 95C53.0724 93.9857 52.2472 93.1605 51.2329 93.1605ZM51.2329 95.6654C50.866 95.6654 50.5675 95.3669 50.5675 95C50.5675 94.6331 50.866 94.3346 51.2329 94.3346C51.5998 94.3346 51.8982 94.6331 51.8982 95C51.8982 95.3669 51.5998 95.6654 51.2329 95.6654Z" fill="black"/>
<path d="M75.6556 95.6654H54.9902C54.666 95.6654 54.4031 95.9281 54.4031 96.2524C54.4031 96.5768 54.666 96.8395 54.9902 96.8395H75.6556C75.9798 96.8395 76.2427 96.5768 76.2427 96.2524C76.2427 95.9281 75.9798 95.6654 75.6556 95.6654Z" fill="black"/>
<path d="M54.4031 93.7476C54.4031 94.0719 54.666 94.3346 54.9902 94.3346H75.6556C75.9798 94.3346 76.2427 94.0719 76.2427 93.7476C76.2427 93.4232 75.9798 93.1605 75.6556 93.1605H54.9902C54.666 93.1605 54.4031 93.4232 54.4031 93.7476Z" fill="black"/>
<path d="M76.2427 83.728C76.2427 83.4037 75.9798 83.1409 75.6556 83.1409H54.9902C54.666 83.1409 54.4031 83.4037 54.4031 83.728C54.4031 84.0523 54.666 84.3151 54.9902 84.3151H75.6556C75.9798 84.3151 76.2427 84.0523 76.2427 83.728Z" fill="black"/>
<path d="M54.9902 81.8102H75.6556C75.9798 81.8102 76.2427 81.5474 76.2427 81.2231C76.2427 80.8988 75.9798 80.636 75.6556 80.636H54.9902C54.666 80.636 54.4031 80.8988 54.4031 81.2231C54.4031 81.5474 54.666 81.8102 54.9902 81.8102Z" fill="black"/>
<path d="M45.5969 105.059C44.2373 105.059 43.1311 106.165 43.1311 107.524C43.1311 108.884 44.2373 109.99 45.5969 109.99C46.9565 109.99 48.0626 108.884 48.0626 107.524C48.0626 106.165 46.9565 105.059 45.5969 105.059ZM45.5969 108.816C44.8847 108.816 44.3053 108.237 44.3053 107.524C44.3053 106.812 44.8847 106.233 45.5969 106.233C46.309 106.233 46.8885 106.812 46.8885 107.524C46.8885 108.237 46.309 108.816 45.5969 108.816Z" fill="black"/>
<path d="M51.2329 105.685C50.2186 105.685 49.3933 106.51 49.3933 107.524C49.3933 108.539 50.2186 109.364 51.2329 109.364C52.2472 109.364 53.0724 108.539 53.0724 107.524C53.0724 106.51 52.2472 105.685 51.2329 105.685ZM51.2329 108.19C50.866 108.19 50.5675 107.891 50.5675 107.524C50.5675 107.158 50.866 106.859 51.2329 106.859C51.5998 106.859 51.8982 107.158 51.8982 107.524C51.8982 107.891 51.5998 108.19 51.2329 108.19Z" fill="black"/>
<path d="M75.6556 108.19H54.9902C54.666 108.19 54.4031 108.453 54.4031 108.777C54.4031 109.101 54.666 109.364 54.9902 109.364H75.6556C75.9798 109.364 76.2427 109.101 76.2427 108.777C76.2427 108.453 75.9798 108.19 75.6556 108.19Z" fill="black"/>
<path d="M54.4031 106.272C54.4031 106.596 54.666 106.859 54.9902 106.859H75.6556C75.9798 106.859 76.2427 106.596 76.2427 106.272C76.2427 105.948 75.9798 105.685 75.6556 105.685H54.9902C54.666 105.685 54.4031 105.948 54.4031 106.272Z" fill="black"/>
</g>
<rect x="29" y="1" width="39.6552" height="21.7241" rx="6" fill="white" stroke="black" stroke-width="2"/>
<path d="M48.8276 22.1724V26.6552" stroke="black" stroke-width="5"/>
<ellipse cx="48.8276" cy="26.6552" rx="5.37931" ry="1.34483" fill="black"/>
<rect x="79" y="32" width="39.6552" height="21.7241" rx="6" fill="white" stroke="black" stroke-width="2"/>
<path d="M98.8276 53.1724V57.6552" stroke="black" stroke-width="5"/>
<ellipse cx="98.8276" cy="57.6552" rx="5.37931" ry="1.34483" fill="black"/>
<rect x="1" y="41" width="39.6552" height="21.7241" rx="6" fill="white" stroke="black" stroke-width="2"/>
<path d="M20.8276 62.1724V66.6552" stroke="black" stroke-width="5"/>
<ellipse cx="20.8276" cy="66.6552" rx="5.37931" ry="1.34483" fill="black"/>
<path d="M95.4889 63.8952C95.431 63.6252 95.1652 63.4532 94.8952 63.5111L90.4951 64.454C90.2251 64.5118 90.0531 64.7776 90.111 65.0476C90.1688 65.3177 90.4346 65.4896 90.7047 65.4318L94.6159 64.5937L95.454 68.5049C95.5118 68.7749 95.7776 68.9469 96.0476 68.889C96.3177 68.8312 96.4896 68.5654 96.4318 68.2953L95.4889 63.8952ZM84.4198 81.2716L95.4198 64.2716L94.5802 63.7284L83.5802 80.7284L84.4198 81.2716Z" fill="black"/>
<path d="M55.3057 32.6044C55.0872 32.4355 54.7732 32.4758 54.6044 32.6943L51.8528 36.2551C51.684 36.4736 51.7243 36.7876 51.9428 36.9564C52.1613 37.1253 52.4753 37.085 52.6441 36.8665L55.0899 33.7014L58.2551 36.1472C58.4736 36.316 58.7876 36.2757 58.9564 36.0572C59.1253 35.8387 59.085 35.5247 58.8665 35.3559L55.3057 32.6044ZM60.4959 71.9364L55.4959 32.9364L54.5041 33.0636L59.5041 72.0636L60.4959 71.9364Z" fill="black"/>
<path d="M30.1923 71.5385C29.9374 71.4323 29.6447 71.5528 29.5385 71.8077L27.8077 75.9615C27.7015 76.2164 27.822 76.5092 28.0769 76.6154C28.3318 76.7216 28.6246 76.6011 28.7308 76.3462L30.2692 72.6538L33.9615 74.1923C34.2164 74.2985 34.5092 74.178 34.6154 73.9231C34.7216 73.6682 34.6011 73.3754 34.3462 73.2692L30.1923 71.5385ZM37.4623 88.8096L30.4623 71.8096L29.5377 72.1904L36.5377 89.1904L37.4623 88.8096Z" fill="black"/>
<defs>
<clipPath id="clip0_2_47">
<rect width="40" height="40" fill="white" transform="translate(40 75)"/>
</clipPath>
</defs>
</svg>
