<svg width="160" height="160" viewBox="0 0 160 160" fill="none" xmlns="http://www.w3.org/2000/svg">
<path d="M20.1043 23.4149L21.5989 21.9203C22.9408 23.2622 24.1582 23.9171 25.251 23.885C26.3518 23.8609 27.5611 23.1899 28.8789 21.8721L32.7358 18.0152C33.8447 16.9063 34.9094 16.0505 35.9299 15.4479C36.9584 14.8533 37.9789 14.5319 38.9913 14.4837C40.0038 14.4354 41.0403 14.6845 42.101 15.2309C43.1617 15.7773 44.2826 16.6411 45.4638 17.8223L43.1014 20.1847C42.1693 19.2526 41.2894 18.662 40.4618 18.4129C39.6422 18.1719 38.8146 18.2442 37.9789 18.6299C37.1593 19.0156 36.2794 19.6785 35.3393 20.6186L30.5181 25.4398C29.8913 26.0665 29.2365 26.5527 28.5535 26.8982C27.8785 27.2517 27.1352 27.3924 26.3237 27.32C25.5121 27.2477 24.5961 26.9022 23.5756 26.2835C22.5631 25.6728 21.4061 24.7166 20.1043 23.4149ZM14.6082 48.6779C13.427 47.4967 12.5632 46.3758 12.0168 45.3151C11.4704 44.2545 11.2213 43.2179 11.2695 42.2055C11.3177 41.193 11.6392 40.1725 12.2338 39.144C12.8364 38.1235 13.6922 37.0588 14.801 35.95L18.658 32.093C19.9758 30.7752 20.6467 29.5659 20.6708 28.4651C20.703 27.3723 20.0481 26.1549 18.7062 24.813L20.2008 23.3185C21.5025 24.6202 22.4587 25.7773 23.0694 26.7897C23.6881 27.8102 24.0336 28.7262 24.1059 29.5378C24.1782 30.3494 24.0376 31.0926 23.6841 31.7676C23.3386 32.4506 22.8524 33.1055 22.2257 33.7322L17.4045 38.5534C16.4644 39.4935 15.8014 40.3734 15.4157 41.193C15.0381 42.0206 14.9698 42.8443 15.2108 43.6639C15.4519 44.4995 16.0385 45.3834 16.9706 46.3155L14.6082 48.6779ZM18.7062 24.813L21.5989 21.9203L24.4434 24.7648L21.5507 27.6575L18.7062 24.813Z" fill="black"/>
<path d="M135.988 139.105L134.493 140.6C133.151 139.258 131.93 138.599 130.829 138.623C129.736 138.655 128.531 139.33 127.213 140.648L123.356 144.505C122.247 145.614 121.179 146.466 120.15 147.06C119.13 147.663 118.113 147.988 117.101 148.037C116.088 148.085 115.052 147.836 113.991 147.289C112.93 146.743 111.81 145.879 110.628 144.698L112.991 142.336C113.923 143.268 114.803 143.85 115.63 144.083C116.458 144.332 117.282 144.264 118.101 143.878C118.929 143.501 119.813 142.842 120.753 141.902L125.574 137.081C126.201 136.454 126.852 135.964 127.527 135.61C128.21 135.265 128.957 135.128 129.768 135.2C130.58 135.273 131.492 135.614 132.504 136.225C133.525 136.844 134.686 137.804 135.988 139.105ZM141.484 113.842C142.665 115.024 143.529 116.145 144.075 117.205C144.622 118.266 144.871 119.302 144.823 120.315C144.774 121.327 144.449 122.344 143.846 123.364C143.252 124.393 142.4 125.462 141.291 126.57L137.434 130.427C136.116 131.745 135.441 132.95 135.409 134.043C135.385 135.144 136.044 136.365 137.386 137.707L135.891 139.202C134.59 137.9 133.629 136.739 133.011 135.719C132.4 134.706 132.059 133.794 131.986 132.983C131.914 132.171 132.05 131.424 132.396 130.741C132.75 130.066 133.24 129.415 133.866 128.788L138.688 123.967C139.628 123.027 140.287 122.143 140.664 121.315C141.058 120.488 141.13 119.66 140.881 118.832C140.64 118.013 140.054 117.137 139.122 116.205L141.484 113.842ZM137.386 137.707L134.493 140.6L131.649 137.756L134.541 134.863L137.386 137.707Z" fill="black"/>
<path d="M139.105 23.7524L140.6 25.2469C139.258 26.5888 138.599 27.8102 138.623 28.911C138.655 30.0038 139.33 31.2091 140.648 32.5269L144.505 36.3839C145.614 37.4927 146.466 38.5614 147.06 39.5899C147.663 40.6104 147.988 41.6269 148.037 42.6393C148.085 43.6518 147.836 44.6883 147.289 45.749C146.743 46.8097 145.879 47.9306 144.698 49.1118L142.336 46.7494C143.268 45.8173 143.85 44.9374 144.083 44.1098C144.332 43.2822 144.264 42.4585 143.878 41.6389C143.501 40.8113 142.842 39.9274 141.902 38.9873L137.081 34.1661C136.454 33.5394 135.964 32.8885 135.61 32.2135C135.265 31.5305 135.128 30.7832 135.2 29.9717C135.273 29.1601 135.614 28.2481 136.225 27.2357C136.844 26.2152 137.804 25.0541 139.105 23.7524ZM113.842 18.2562C115.024 17.075 116.145 16.2112 117.205 15.6648C118.266 15.1184 119.302 14.8693 120.315 14.9175C121.327 14.9658 122.344 15.2912 123.364 15.8938C124.393 16.4884 125.462 17.3402 126.57 18.4491L130.427 22.306C131.745 23.6238 132.95 24.2988 134.043 24.3309C135.144 24.355 136.365 23.6961 137.707 22.3542L139.202 23.8488C137.9 25.1505 136.739 26.1107 135.719 26.7294C134.706 27.3401 133.794 27.6816 132.983 27.7539C132.171 27.8263 131.424 27.6897 130.741 27.3441C130.066 26.9906 129.415 26.5004 128.788 25.8737L123.967 21.0525C123.027 20.1124 122.143 19.4535 121.315 19.0758C120.488 18.6821 119.66 18.6098 118.832 18.8589C118.013 19.0999 117.137 19.6865 116.205 20.6186L113.842 18.2562ZM137.707 22.3542L140.6 25.2469L137.756 28.0914L134.863 25.1987L137.707 22.3542Z" fill="black"/>
<path d="M20.6347 135.988L19.1401 134.493C20.482 133.151 21.1409 131.93 21.1168 130.829C21.0846 129.736 20.4097 128.531 19.0919 127.213L15.2349 123.356C14.1261 122.247 13.2743 121.179 12.6797 120.15C12.0771 119.13 11.7516 118.113 11.7034 117.101C11.6552 116.088 11.9043 115.052 12.4507 113.991C12.9971 112.93 13.8609 111.81 15.0421 110.628L17.4045 112.991C16.4724 113.923 15.8898 114.803 15.6568 115.63C15.4077 116.458 15.476 117.282 15.8617 118.101C16.2393 118.929 16.8982 119.813 17.8384 120.753L22.6596 125.574C23.2863 126.201 23.7765 126.852 24.13 127.527C24.4755 128.21 24.6121 128.957 24.5398 129.768C24.4675 130.58 24.126 131.492 23.5153 132.504C22.8966 133.525 21.9364 134.686 20.6347 135.988ZM45.8977 141.484C44.7165 142.665 43.5955 143.529 42.5349 144.075C41.4742 144.622 40.4377 144.871 39.4252 144.823C38.4128 144.774 37.3963 144.449 36.3758 143.846C35.3473 143.252 34.2786 142.4 33.1697 141.291L29.3128 137.434C27.995 136.116 26.7897 135.441 25.6969 135.409C24.5961 135.385 23.3747 136.044 22.0328 137.386L20.5382 135.891C21.84 134.59 23.0011 133.629 24.0215 133.011C25.034 132.4 25.946 132.059 26.7576 131.986C27.5691 131.914 28.3164 132.05 28.9994 132.396C29.6744 132.75 30.3252 133.24 30.952 133.866L35.7732 138.688C36.7133 139.628 37.5972 140.287 38.4248 140.664C39.2525 141.058 40.0801 141.13 40.9077 140.881C41.7273 140.64 42.6032 140.054 43.5353 139.122L45.8977 141.484ZM22.0328 137.386L19.1401 134.493L21.9846 131.649L24.8773 134.541L22.0328 137.386Z" fill="black"/>
<path d="M78.1465 122.989C84.8466 122.595 90.5683 121.083 96.269 118.212C108.684 111.949 117.509 100.332 120.191 86.7235C120.789 83.6978 121 81.3969 121 77.9983C121 75.1696 120.923 73.9875 120.578 71.5951C119.008 60.6041 113.455 50.6475 104.897 43.4703C98.2114 37.8622 89.9983 34.3088 81.3488 33.2885C79.3711 33.0563 78.421 33 76 33C73.4734 33 72.5866 33.0493 70.4049 33.3237C55.4917 35.1602 42.4295 44.4132 35.6872 57.9091C33.5336 62.2225 32.112 66.7821 31.4223 71.5951C31.0774 73.9804 31 75.1696 31 77.9631C31 80.7636 31.0845 82.0653 31.4223 84.4014C34.2445 104.16 49.8474 119.76 69.5956 122.574C71.6928 122.87 73.03 122.968 75.437 122.989C76.6967 123.004 77.9143 123.004 78.1465 122.989ZM73.0582 117.987C70.792 115.601 69.7785 114.461 68.4202 112.787C65.4151 109.057 62.7759 104.99 60.8546 101.078C60.2774 99.9098 59.3907 97.9607 59.4259 97.9255C59.4892 97.8622 61.2487 97.3556 62.5577 97.0319C64.6198 96.5112 66.1681 96.2086 68.4695 95.8709C69.5252 95.7161 70.9891 95.5754 73.2341 95.4135L73.8183 95.3783V106.989C73.8183 116.164 73.7972 118.599 73.7338 118.599C73.6845 118.599 73.3819 118.324 73.0582 117.987ZM78.1817 106.848V95.3713L78.6885 95.4135C78.97 95.4346 79.6597 95.4839 80.2227 95.5191C82.3341 95.6739 84.6143 95.9905 86.8735 96.4408C88.7315 96.8138 92.1167 97.7004 92.1167 97.813C92.1167 97.8341 91.8774 98.39 91.5818 99.0584C89.0763 104.702 85.5996 110.092 81.215 115.13C80.1946 116.298 78.3155 118.317 78.238 118.317C78.2099 118.317 78.1817 113.152 78.1817 106.848ZM84.9099 117.6C84.9451 117.55 85.2055 117.227 85.5011 116.875C89.6816 111.935 93.3413 106.088 95.7412 100.508C96.0227 99.8465 96.276 99.2906 96.2972 99.2695C96.3957 99.171 100.414 101.022 102.124 101.957C104.088 103.034 106.615 104.596 106.615 104.737C106.615 104.878 103.124 108.311 102.216 109.057C97.7118 112.787 93.0316 115.32 87.6547 116.945C87.1691 117.086 84.9944 117.67 84.8818 117.684C84.8677 117.684 84.8818 117.642 84.9099 117.6ZM65.7247 117.325C59.3414 115.629 53.7674 112.625 48.8761 108.262C47.9401 107.418 45.5824 105.039 45.4487 104.8C45.3924 104.688 45.4839 104.603 46.1877 104.146C47.919 103.02 50.1218 101.782 52.0361 100.86C53.3241 100.241 55.0765 99.4595 55.1961 99.4595C55.2384 99.4595 55.4776 99.9239 55.731 100.501C58.0465 105.792 61.3613 111.119 65.401 116.023C65.9077 116.636 66.3933 117.234 66.4848 117.339C66.5763 117.452 66.6256 117.543 66.5904 117.543C66.5622 117.543 66.1681 117.445 65.7247 117.325ZM106.495 99.3962C104.151 97.9889 101.85 96.8208 99.2882 95.7302C98.5352 95.4065 97.8947 95.125 97.8666 95.0969C97.8384 95.0687 97.8877 94.8014 97.9862 94.4917C98.7111 92.1556 99.4008 89.2777 99.7809 86.9346C100.084 85.1051 100.421 81.9739 100.421 81.038C100.421 80.8058 100.442 80.5173 100.464 80.3977L100.513 80.1796L108.543 80.1936L116.573 80.2147L116.552 80.6369C116.39 84.0285 115.581 87.99 114.307 91.6138C113.223 94.6888 111.337 98.4181 109.669 100.775L109.359 101.212L108.444 100.621C107.945 100.29 107.065 99.741 106.495 99.3962ZM42.0565 100.353C39.741 96.8279 38.0449 93.1267 36.8696 89.0314C36.215 86.7376 35.652 83.5993 35.4972 81.3758C35.4761 81.045 35.4409 80.644 35.4198 80.4821L35.3846 80.1796H43.1544H50.9241L50.9734 81.0802C51.2057 85.2177 52.0291 89.7984 53.2748 93.8655C53.4719 94.5269 53.6408 95.118 53.6478 95.1884C53.6548 95.2869 53.3663 95.4346 52.3599 95.8709C49.6221 97.0601 46.7366 98.594 44.1819 100.219C43.5063 100.649 42.894 101.043 42.8165 101.099C42.7391 101.162 42.6547 101.19 42.6265 101.176C42.5913 101.155 42.338 100.789 42.0565 100.353ZM57.6946 93.3026C56.5404 89.6647 55.8295 86.1606 55.4917 82.4664C55.4354 81.8472 55.3791 81.0873 55.365 80.7777L55.3439 80.2147L64.5776 80.1936L73.8183 80.1796V85.5836V90.9876L72.4248 91.072C67.9557 91.3394 62.9448 92.233 58.9332 93.4715C58.4265 93.6263 57.9761 93.7459 57.9198 93.7388C57.8705 93.7318 57.7649 93.5348 57.6946 93.3026ZM92.5249 93.3096C88.3655 92.0993 83.9035 91.3324 79.5682 91.072L78.1817 90.9876V85.5836V80.1796H87.1198H96.0579V80.4892C96.0579 81.0028 95.8538 83.3038 95.6989 84.4718C95.4104 86.6742 94.9318 89.0877 94.3617 91.1987C94.031 92.4371 93.672 93.6192 93.6298 93.6192C93.6157 93.6192 93.116 93.4785 92.5249 93.3096ZM100.464 75.6621C100.442 75.5707 100.421 75.3103 100.421 75.0781C100.421 74.4871 100.238 72.4817 100.069 71.1377C99.6331 67.7602 98.8026 64.0801 97.747 60.8785C97.5569 60.2945 97.4232 59.7879 97.4514 59.7668C97.4795 59.7386 97.8947 59.5557 98.3804 59.3657C101.273 58.2117 104.553 56.53 107.551 54.6512C108.205 54.2502 108.761 53.9406 108.789 53.9757C108.944 54.1446 109.894 55.5378 110.331 56.2344C113.146 60.6885 115.032 65.5015 115.968 70.61C116.2 71.8484 116.432 73.6356 116.503 74.6207C116.524 74.9515 116.559 75.3525 116.58 75.5214L116.615 75.8169H108.564H100.506L100.464 75.6621ZM78.1817 69.7726V63.7283L78.8644 63.6861C83.1012 63.4116 85.8671 63.0246 89.4634 62.2014C90.4557 61.9692 93.0809 61.2726 93.1794 61.2092C93.2287 61.1811 93.7706 62.8135 94.1506 64.1364C95.1429 67.6124 95.8045 71.4332 96.0297 75.064L96.079 75.8169H87.1268H78.1817V69.7726ZM55.3439 75.3103C55.4988 73.2768 55.548 72.742 55.7028 71.5247C56.0125 69.1464 56.5122 66.6906 57.1456 64.4179C57.5116 63.1372 58.1872 61.0404 58.2365 61.0404C58.2505 61.0404 58.6236 61.1459 59.0599 61.2796C61.5513 62.0325 64.6339 62.715 67.3434 63.1091C69.314 63.3976 70.5457 63.5172 73.1286 63.6861L73.8183 63.7283V69.7726V75.8169H64.5635H55.3017L55.3439 75.3103ZM35.4198 75.5566C35.4409 75.4088 35.4761 75.0078 35.4972 74.6559C35.8772 69.0971 37.7775 62.9472 40.6841 57.8739C41.409 56.6215 42.8869 54.3346 43.2107 53.9757C43.2388 53.9406 43.7948 54.2431 44.4493 54.6512C47.3419 56.4596 50.896 58.2961 53.4226 59.2883C53.7674 59.422 54.0419 59.5627 54.0419 59.612C54.0419 59.6612 53.9786 59.8582 53.9012 60.0623C53.6548 60.6885 52.8455 63.4187 52.5217 64.7345C51.7054 68.0346 51.1986 71.2784 51.0016 74.4659L50.9171 75.8169H43.1473H35.3775L35.4198 75.5566ZM78.1817 48.5014L78.1888 37.7145L78.97 38.5236C83.9035 43.6392 88.2107 49.8172 90.9906 55.756C91.3003 56.4315 91.5466 57.0155 91.5325 57.0577C91.4692 57.2055 88.3655 57.9865 86.2049 58.3946C83.6713 58.8731 80.6591 59.2249 78.7588 59.2672L78.1817 59.2812V48.5014ZM70.7568 59.0983C67.3716 58.7676 63.6838 58.071 60.7631 57.1984C60.4112 57.0999 60.0734 56.9944 60.003 56.9803C59.9396 56.9592 59.8833 56.9099 59.8833 56.8607C59.8833 56.6989 61.8047 52.9273 62.5436 51.6467C64.7817 47.7485 67.3364 44.2232 70.5668 40.5783C72.0166 38.9388 73.5297 37.3978 73.6845 37.3978C73.8183 37.3978 73.8183 37.6652 73.8183 48.3466V59.3023L72.8119 59.2531C72.2629 59.2249 71.3339 59.1546 70.7568 59.0983ZM94.6151 53.1947C92.2504 48.3184 89.3297 43.8291 85.6419 39.4032C85.1422 38.8051 84.748 38.3126 84.7692 38.3126C84.8818 38.3126 86.4371 38.7066 87.2465 38.9388C93.9887 40.8949 99.9146 44.4202 104.954 49.4935L105.932 50.4716L105.341 50.8586C103.039 52.3503 99.2882 54.2713 96.4098 55.4323L95.8115 55.6715L95.6426 55.3127C95.5441 55.1156 95.0866 54.1657 94.6151 53.1947ZM54.4149 54.9397C52.198 53.9968 48.5876 52.104 46.6592 50.8586L46.068 50.4716L47.0815 49.4513C51.5576 44.9479 56.8219 41.6267 62.7266 39.5862C64.1131 39.1077 66.4989 38.4181 66.4989 38.5025C66.4989 38.5166 66.1259 38.981 65.6684 39.5299C61.8891 44.0543 58.6517 49.0924 56.3644 53.9968C55.9984 54.7779 55.6606 55.4112 55.6184 55.4112C55.5691 55.4112 55.0272 55.2001 54.4149 54.9397Z" fill="black"/>
</svg>
